<?xml version="1.0" encoding="UTF-8"?>
<svg id="Layer_2" data-name="Layer 2" xmlns="http://www.w3.org/2000/svg" viewBox="0 0 833.34 696.76">
  <defs>
    <style>
      .cls-1 {
        fill: #cf5b2a;
      }

      .cls-2 {
        fill: #fff;
      }

      .cls-3 {
        fill: #060f1d;
      }

      .cls-4 {
        fill: #e1ac81;
      }
    </style>
  </defs>
  <g id="Layer_1-2" data-name="Layer 1">
    <g>
      <circle class="cls-1" cx="418.79" cy="348.38" r="348.38"/>
      <g>
        <path class="cls-2" d="M612.58,216.97c72.57,110.03,42.21,258.07-67.82,330.65-110.05,72.57-258.09,42.21-330.66-67.83-72.58-110.04-42.23-258.07,67.82-330.66,110.04-72.59,258.07-42.21,330.66,67.83Z"/>
        <g>
          <path class="cls-4" d="M498.04,133.38c-.29,0-.59-.06-.87-.2l-16.87-8.02-15.34-1.71c-1.11-.12-1.91-1.12-1.78-2.23.12-1.11,1.11-1.91,2.23-1.78l15.68,1.74c.22.02.44.09.64.18l17.18,8.16c1.01.48,1.44,1.68.96,2.69-.35.73-1.07,1.15-1.83,1.15Z"/>
          <path class="cls-4" d="M493.07,144.29c-.52,0-1.03-.2-1.43-.59l-11.86-11.85-21.36-1.04c-1.11-.05-1.97-1-1.92-2.12.05-1.11,1.01-1.97,2.12-1.92l22.14,1.08c.5.02.98.23,1.33.59l12.41,12.41c.79.79.79,2.07,0,2.86-.39.39-.91.59-1.43.59Z"/>
          <path class="cls-4" d="M483.71,157.85c-.75,0-1.49-.33-1.99-.97l-10.19-13.05-22.61-1.66c-1.39-.1-2.44-1.31-2.33-2.7.1-1.39,1.3-2.45,2.7-2.33l23.72,1.74c.71.05,1.37.4,1.81.96l10.88,13.93c.86,1.1.66,2.69-.44,3.55-.46.36-1.01.54-1.55.54Z"/>
          <path class="cls-4" d="M468.26,175.55c-1.06,0-2.08-.55-2.64-1.54l-8.94-15.79-20.66-1.62c-1.67-.13-2.92-1.59-2.79-3.26.13-1.67,1.59-2.92,3.26-2.79l22.27,1.74c1,.08,1.91.65,2.4,1.53l9.73,17.2c.82,1.46.31,3.31-1.14,4.13-.47.27-.98.39-1.49.39Z"/>
          <path class="cls-4" d="M446.05,195.72c-1.78,0-3.41-1.18-3.9-2.98l-4.52-16.58-22.39-3.12c-2.21-.31-3.75-2.35-3.45-4.56.31-2.21,2.35-3.75,4.56-3.45l27.67,3.85,5.93,21.73c.59,2.15-.68,4.37-2.83,4.96-.36.1-.71.14-1.07.14Z"/>
          <path class="cls-4" d="M420.93,216.93c-2.15,0-4.06-1.53-4.46-3.71l-3.35-17.96-20.19-5.9c-2.41-.7-3.79-3.23-3.09-5.64.7-2.41,3.23-3.79,5.64-3.09l25.56,7.47,4.37,23.45c.46,2.47-1.17,4.84-3.64,5.3-.28.05-.56.08-.84.08Z"/>
          <path class="cls-4" d="M390.94,237.14c-2.51,0-4.55-2.04-4.55-4.55v-21.24l-18.25-8.56c-2.27-1.07-3.25-3.77-2.19-6.05,1.07-2.27,3.77-3.25,6.05-2.19l23.48,11.01v27.02c0,2.51-2.04,4.55-4.55,4.55Z"/>
          <path class="cls-4" d="M358.2,251.92c-.33,0-.66-.04-1-.11-2.45-.55-3.99-2.98-3.44-5.43l4.37-19.53-19.36-6.93c-2.36-.85-3.59-3.45-2.75-5.81.85-2.36,3.45-3.59,5.81-2.75l26.92,9.64-6.12,27.36c-.47,2.12-2.35,3.55-4.43,3.55Z"/>
          <path class="cls-4" d="M323.03,266.42c-.52,0-1.05-.09-1.56-.28-2.36-.86-3.57-3.47-2.71-5.83l6.78-18.51-13.02-8.51c-2.1-1.37-2.69-4.19-1.32-6.29,1.37-2.1,4.19-2.69,6.29-1.32l19.07,12.47-9.26,25.29c-.67,1.84-2.42,2.98-4.27,2.98Z"/>
          <path class="cls-4" d="M293.11,276.29c-.45,0-.91-.07-1.36-.21-2.4-.75-3.73-3.31-2.97-5.7l5.84-18.57-11.07-8.55c-1.99-1.54-2.35-4.39-.82-6.38,1.54-1.99,4.39-2.35,6.38-.82l16.08,12.43-7.74,24.62c-.61,1.94-2.4,3.18-4.34,3.18Z"/>
          <path class="cls-4" d="M263.13,287.5c-.73,0-1.47-.18-2.15-.55-2.21-1.19-3.04-3.95-1.84-6.16l9.76-18.1-8.97-8.97c-1.78-1.78-1.78-4.65,0-6.43,1.78-1.77,4.65-1.77,6.43,0l13.76,13.76-12.97,24.06c-.82,1.52-2.39,2.39-4.01,2.39Z"/>
          <path class="cls-4" d="M640.98,417.06c-.88,0-1.69-.58-1.94-1.47l-3.58-12.53c-.11-.38-.1-.79.02-1.16l7.16-22.67c.34-1.06,1.47-1.65,2.54-1.32,1.06.34,1.65,1.47,1.32,2.54l-6.98,22.09,3.41,11.95c.31,1.07-.31,2.19-1.39,2.5-.19.05-.37.08-.56.08Z"/>
          <path class="cls-4" d="M627.84,428.71c-.94,0-1.85-.53-2.28-1.44l-6.35-13.34c-.29-.61-.32-1.3-.1-1.94l7.94-22.23c.47-1.31,1.91-2,3.23-1.53,1.31.47,2,1.91,1.53,3.23l-7.59,21.24,5.9,12.39c.6,1.26.06,2.77-1.19,3.37-.35.17-.72.25-1.08.25Z"/>
          <path class="cls-4" d="M610.15,442.21c-.9,0-1.81-.35-2.5-1.04l-10.19-10.19c-.92-.92-1.26-2.26-.89-3.51l7.37-24.8c.56-1.87,2.52-2.94,4.4-2.38,1.87.56,2.94,2.52,2.38,4.4l-6.77,22.78,8.7,8.7c1.38,1.38,1.38,3.62,0,5-.69.69-1.6,1.04-2.5,1.04Z"/>
          <path class="cls-4" d="M587.19,457.31c-.71,0-1.43-.21-2.05-.66l-12.77-9.09c-1.26-.89-1.79-2.5-1.31-3.97l7.61-23.51c.6-1.86,2.59-2.88,4.45-2.27,1.86.6,2.88,2.6,2.27,4.45l-6.81,21.05,10.66,7.58c1.59,1.13,1.96,3.34.83,4.93-.69.97-1.78,1.49-2.88,1.49Z"/>
          <path class="cls-4" d="M562.63,475.25c-.54,0-1.09-.11-1.62-.34l-18.87-8.26,7-27.15c.56-2.16,2.76-3.46,4.92-2.9,2.16.56,3.46,2.76,2.9,4.92l-5.28,20.49,12.56,5.5c2.04.89,2.98,3.28,2.08,5.32-.66,1.52-2.15,2.42-3.7,2.42Z"/>
          <path class="cls-4" d="M536.18,493.46c-.37,0-.74-.05-1.11-.16l-22.34-6.38,4.68-26.01c.4-2.2,2.49-3.66,4.69-3.26,2.2.4,3.66,2.5,3.26,4.69l-3.39,18.81,15.31,4.37c2.15.61,3.39,2.85,2.78,5-.51,1.77-2.13,2.93-3.88,2.93Z"/>
          <path class="cls-4" d="M509.5,511.55c-.15,0-.29,0-.44-.02l-24-2.61,1.36-24.66c.12-2.23,2.02-3.94,4.26-3.81,2.23.12,3.93,2.03,3.81,4.26l-.94,17,16.38,1.78c2.22.24,3.82,2.24,3.58,4.45-.22,2.07-1.98,3.6-4.01,3.6Z"/>
          <path class="cls-4" d="M481.41,531.52c-.1,0-.19,0-.29,0l-25.48-1.8v-22.2c0-2.23,1.81-4.04,4.04-4.04s4.04,1.81,4.04,4.04v14.67l17.97,1.27c2.23.16,3.9,2.09,3.75,4.32-.15,2.13-1.92,3.76-4.03,3.76Z"/>
          <path class="cls-4" d="M457.78,548.22h-25.18l-4.83-19.79c-.53-2.17.8-4.35,2.97-4.88,2.17-.53,4.35.8,4.88,2.97l3.32,13.62h18.83c2.23,0,4.04,1.81,4.04,4.04s-1.81,4.04-4.04,4.04Z"/>
          <path class="cls-4" d="M434.99,563.69h-23.78l-7.8-14.62c-1.05-1.97-.31-4.42,1.66-5.47,1.97-1.05,4.42-.3,5.47,1.66l5.52,10.34h18.93c2.23,0,4.04,1.81,4.04,4.04s-1.81,4.04-4.04,4.04Z"/>
          <path class="cls-4" d="M414.75,575.06h-23.18l-7.86-11.14c-1.29-1.82-.85-4.34.97-5.63,1.82-1.29,4.34-.85,5.63.97l5.45,7.72h18.99c2.23,0,4.04,1.81,4.04,4.04s-1.81,4.04-4.04,4.04Z"/>
          <path class="cls-4" d="M400.88,582.15c-.06,0-.11,0-.17,0l-22.61-1.53c-.61-.04-1.18-.3-1.62-.73l-7.07-7.07c-.99-.99-.99-2.59,0-3.57s2.59-.99,3.57,0l6.4,6.4,21.66,1.46c1.39.09,2.44,1.3,2.35,2.69-.09,1.33-1.2,2.36-2.52,2.36Z"/>
        </g>
      </g>
      <g>
        <path class="cls-2" d="M829.3,286.65c-2.31,5.96-8.02,17.39-20.17,26.73-9.07,6.97-17.76,9.62-21.04,10.62-8.1,2.48-15.12,3-19.59,3-.95,0-1.64-.03-2.06-.04-4.32-.19-13.17-.56-23.26-5.54-2.53-1.24-9.1-4.48-15.26-11.14-4.98,6.37-10.7,12.88-17.45,19.48-11.5,11.26-23.07,19.93-35.35,26.51-13.15,7.05-26.08,11.3-38.42,12.63-2.9.32-5.78.48-8.55.48-4.35,0-8.52-.38-12.73-1.17-4.17-.78-10.08-1.89-16.53-5.38-1.83,2.79-3.82,5.46-5.98,8.01-5.31,6.29-15.21,18.01-32.27,22.46-2.65.69-7.59,1.98-13.84,1.98-5.91,0-11.61-1.16-16.94-3.46-2.23-.95-4.26-2.05-6.12-3.23-3.99,4.18-8.33,8.04-12.97,11.54-5.24,3.94-10.84,7.39-16.73,10.3l-4.92,19.23-.23.65c-1.93,5.42-20.11,53.12-62.69,60.13-2.56.42-7.35,1.22-13.26,1.22-13.06,0-24.74-4.01-33.79-11.59-8.88-7.44-15.07-18.28-17.44-30.52l-.06-.3c-11.79,9.83-24.2,15.31-35.77,15.31-4.81,0-9.32-.97-13.4-2.87-2.05-.96-4.59-2.48-7.21-4.87-5.06,6.48-11.56,12.8-19.9,17.99-6.38,3.97-18.23,11.35-33.18,11.35-4.06,0-8.09-.55-11.99-1.65-4.02-1.13-8.79-3.09-13.67-6.5-5.61,9.45-13.34,18.11-23.14,25.88-10.82,8.59-20.91,12.63-24.22,13.96-40.93,16.41-142.72,45.93-154.19,49.24l-24.98,7.21,13.7-55.19,6.45-2.55c2.87-1.83,11.57-8.9,18.45-14.81,10.65-10.36,19.41-27.44,25.97-44.11l-20.26-10.37c-6.47-3.31-38.97-21.65-43.59-57.76-3.6-28.17,12.16-49.55,19.73-59.82,11.57-15.69,24.62-24.17,37.24-32.37,11.43-7.44,23.69-13.68,36.43-18.57l.46-.17,156.49-48.74,17.72,85.82c9.98-5.41,20.44-8.42,31.3-9.01,1.26-.07,2.56-.1,3.84-.1,5.69,0,11.43.69,17.16,2.07l3.88-7.27,65.1-21.2-5.19,18.28c4.31-5.78,9.72-11.79,16.8-17.57,6.5-5.31,21.7-17.72,44.8-20.79,3.51-.46,7.07-.69,10.61-.69,5.02,0,10.03.46,14.98,1.37l3.81-6.87,57.83-17.67,27.63-97.48,73.61-22.44-34.46,122.07c8.09-11.71,22.59-29.13,45.68-40.03,11.04-5.21,21.66-7.86,31.55-7.86,1.17,0,2.33.04,3.54.11,6.28.41,25.41,1.63,37.3,17.31,1.94,2.56,3.43,5.15,4.58,7.67,1.27-2.94,2.52-5.88,3.78-8.86,3.68-8.66,7.04-17.26,10.27-26.31l2.58-7.2,50.54-14.75,5.94,9.97c5.53,9.29,10.69,18.52,15.77,28.23,6.1,11.66,9.79,18.7,13.57,29.11,3.36,9.22,6.53,17.93,7.38,30.1.51,7.26,1.26,18.15-3.67,30.8Z"/>
        <path class="cls-3" d="M811.49,230.88c-3.37-9.27-6.62-15.54-12.76-27.28-3.69-7.05-8.8-16.49-15.37-27.51l-32.05,9.35c-2.39,6.68-5.89,16.05-10.58,27.1-5.9,13.93-11.67,27.55-21.64,44.17-2.73,4.55-9.78,16-20.59,29.63-11.11,14.01-17.17,21.54-27.93,28.61-6.13,4.02-23.34,15.34-34.85,9.05-4.18-2.29-6.42-6.23-6.87-7.07-4.37-8.03-1.01-16.59-.42-18.03,4.88-.98,11.42-2.51,18.99-4.92.3-.1,7.01-2.25,12.86-4.66,10.32-4.26,24.11-9.95,35.74-22.4,5.82-6.21,16.57-17.72,16.02-33.3-.11-2.9-.46-10.14-5.42-16.68-7.74-10.2-20.89-11.06-26.31-11.4-3.78-.24-13.41-.42-27.73,6.35-25.38,11.97-38.78,33.07-44.87,42.93-5.59,9.03-13.12,23.64-17.36,43.51l2.13,21.93c-.71-7.31-1.42-14.62-2.14-21.93-1.51,7.66-3.37,13.96-4.92,18.6-3.51,10.48-6.39,18.78-13.68,26.08-1.1,1.1-9.89,9.9-14.18,7.44-2-1.15-2.37-4.38-2.33-6.94,19.28-68.3,38.56-136.59,57.84-204.89l-39.51,12.05c-13.17,46.45-26.33,92.9-39.5,139.35-2.49,14.4-6.25,25.93-9.38,34.04-5.2,13.48-10.16,25.99-21.86,37.78-5.6,5.65-11.06,9.43-14.84,11.76h0s29.91-116.91,29.91-116.91l-31.81,9.72-6.5,11.76c-6.15-2.13-17.36-5.08-31.11-3.26-18.51,2.46-30.66,12.12-37.29,17.53-13.2,10.78-19.59,22.48-24.75,31.93-4.53,8.3-11.81,21.92-14.07,41.16-.06.47-.11.94-.17,1.41-.41,1.54-.84,3.13-1.3,4.8-6.34,23.03-9.01,28.21-12.01,32.48-5.51,7.82-14.74,16.29-19.01,14.16-2.03-1.01-2.54-4.21-2.62-7.02l30.72-108.27-32.6,10.62-6.97,13.06c-11.8-5.02-21.38-5.51-27.49-5.18-40.49,2.18-64.58,47.7-70.86,59.58-5.96,11.26-9.15,21.34-10.75,31.01-.24,1.44-.48,2.92-.71,4.42-3.98,13.71-11.24,32.43-21.92,43.19-4.44,4.48-13.14,12.07-48.76,25.05-14.54,5.3-34.52,11.84-59.02,17.64,12.17-8.07,20.11-16.68,24.86-22.62,11.17-13.97,16.06-27.41,20.36-39.51,4.49-12.65,6.78-23.59,8.03-31.24l55.3-16.61,6.85-23.65-55.48,17.02c8.69-30.11,17.37-60.23,26.06-90.34,10.31-4.52,19.26-6.58,25.59-7.6,8.98-1.45,13.58-2.14,19.18-.27,8.98,3.01,14.33,10.37,18.06,15.5,3.71,5.11,5.89,9.9,7.15,13.17l8.25-2.49-13.38-64.78c-46.74,14.56-93.49,29.11-140.23,43.67-8.61,3.3-20.55,8.63-33.63,17.14-11.82,7.68-23.39,15.2-33.34,28.7-6.95,9.43-19.76,26.81-16.92,49.02,3.77,29.49,32.21,44.61,35.54,46.31-2.84-5.99-15.66-34.67-3.51-65.62,9.46-24.11,28.87-36.34,37.55-41.81,14.57-9.18,28.47-12.88,37.39-14.52l-30.39,106.42s-13.55,65.76-43.47,94.46c0,0-18.41,15.84-22.31,17.38l-5.57,22.45c7.53-2.17,112.2-32.49,152.76-48.75,3.33-1.33,11.57-4.72,20.48-11.78,5.45-4.32,22.51-17.86,27.22-41.73.09-.47.18-.95.27-1.44.3.63.6,1.26.94,1.89,1.79,3.33,8.33,15.44,21.77,19.22,14.02,3.94,26.38-3.76,33.18-8,19.04-11.86,26.11-31.01,28.42-38.55,2.78,19.31,11.13,23.71,12.97,24.57,13.69,6.4,39.34-8.33,58.59-41.71l-.04-1.09c.04.06.06.12.1.17,1.51,2.46,8.25,13.35,18.98,16.48,17.04,4.99,41.45-10.39,55.58-40.35-1.42,6.16-11.44,47.84-33.74,64.4-3.06,2.26-8.85,6.56-17.39,7.54-11.68,1.33-20.94-4.37-24.48-6.84.82,4.24,3.44,14.4,12.35,21.87,12.8,10.73,29.17,8.03,34.97,7.06,34.45-5.67,49.93-47.35,51-50.37l6.54-25.55c5.8-2.36,13-5.98,20.45-11.59,10.1-7.6,16.7-15.86,20.71-21.78,1.59,2.57,5.7,8.4,13.33,11.69,9.02,3.88,17.25,1.74,21.07.74,12.46-3.25,19.73-11.86,24.6-17.63,3.69-4.37,9.11-11.92,12.75-22.97,1.49,2.49,4.31,6.48,9.11,9.78,5.27,3.64,10.31,4.64,14.85,5.49,5.53,1.03,11.01,1.17,16.92.52,6.19-.67,17.54-2.69,32.94-10.94,6.93-3.71,18.21-10.57,31.95-24.01,18.95-18.52,29.21-36.45,39.06-53.98,6.82-12.12,15.35-28.99,23.23-50.2,4.04,7.47,6.94,14.02,8.98,19.08,1.77,4.39,3.79,9.47,5.56,16.45,2.03,8.02,3.04,12.02,2.46,16.7-.29,2.26-1.55,11.21-9.21,17.57-6.78,5.63-14.47,5.81-18.74,5.92-9.56.23-16.77-3.37-20.12-5.36.58,2.61,1.75,6.47,4.34,10.5,4.8,7.48,11.37,10.82,14.27,12.25,7.16,3.53,13.51,3.84,17.2,4,1.52.06,8.29.26,16.71-2.31,3.02-.92,9.48-2.95,16.27-8.17,10.27-7.89,14.36-17.77,15.34-20.28,3.72-9.54,3.15-17.58,2.68-24.3-.7-9.89-3.22-16.97-6.52-26.03ZM644.4,254.33c6.85-12.13,12.06-16.94,15.39-19.57,3.73-2.95,10.12-7.87,16.43-6.14.7.19,3.71,1.01,5.42,3.71,1.68,2.63,1.18,5.6.67,8.38-.95,5.2-3.24,8.98-4.65,11.07-5.18,7.72-11.46,12.08-15.44,14.79-6.65,4.52-12.48,6.85-16.25,8.31-4.87,1.91-9.15,3.1-12.35,3.86,3.45-10.45,7.52-18.64,10.79-24.42ZM309.6,376.96c-8.16,24.5-12.7,33.14-16.42,39.3-5.73,9.45-15.87,26.19-26.94,24.82-3.3-.41-5.67-2.3-6.71-3.3-7.51-7.15-3.66-21.83-.19-35.08,1.62-6.17,4.04-15.17,10.26-26.54,7.94-14.51,16.21-29.62,31.2-32.6,7.38-1.47,14,.47,18.3,2.28-2.05,7.43-5.2,18.21-9.5,31.12ZM459.48,335.52c-5.13,15.1-8.96,25.13-15.76,36.65-11.41,19.29-18.38,21.01-22.07,20.93-.61-.01-3.83-.12-6.71-2.26-6.92-5.14-5.69-17.28-4.69-26.13,1.03-8.96,3.28-26.66,16.77-45.5,7.59-10.56,15.89-22.15,29.26-23.24,6.15-.5,11.36,1.37,14.78,3.05-4.39,14.84-8.44,27.23-11.58,36.49Z"/>
      </g>
      <g>
        <path class="cls-2" d="M284.73,603c-1.64,2.64-3.9,4.18-6.74,4.64-2.76.44-5.87-.44-9.36-2.61l-15.81-9.82-7.97,12.83-5.66-3.52,22.45-36.15,21.42,13.3c3.54,2.2,5.68,4.64,6.51,7.31.81,2.79.44,5.5-1.17,8.1l-3.66,5.9ZM271.32,599.97c3.59,2.23,6.2,2.02,7.9-.72l3.37-5.43c1.67-2.69.73-5.17-2.86-7.4l-15.48-9.61-8.41,13.54,15.48,9.61Z"/>
        <path class="cls-2" d="M288.57,608.27c1.29-2.83,3.24-4.69,5.87-5.5,2.36-.75,5.36-.37,8.99,1.29l11.22,5.12-2.4,5.26-10.81-4.93c-3.34-1.52-5.72-.72-7.1,2.32l-8.78,19.26-6.12-2.79,9.13-20.01Z"/>
        <path class="cls-2" d="M329.85,648.06l-9.38-2.95c-3.81-1.2-6.43-3.25-7.87-6.09-1.5-2.8-1.61-6.16-.36-10.13l1.79-5.67c1.25-3.97,3.28-6.71,6.12-8.15,2.79-1.45,6.1-1.63,9.93-.48l9.38,2.95c3.8,1.25,6.42,3.3,7.92,6.1,1.45,2.79,1.6,6.21.35,10.18l-1.79,5.67c-1.25,3.97-3.31,6.64-6.1,8.1-2.86,1.49-6.17,1.67-9.99.47ZM331.11,642.4c2.22.7,4.14.55,5.63-.5,1.21-.9,2.23-2.44,2.94-4.72l1.57-4.98c.72-2.28.79-4.18.31-5.61-.63-1.71-2.09-2.99-4.31-3.69l-8.48-2.67c-2.22-.7-4.1-.48-5.59.57-1.21.9-2.19,2.51-2.91,4.79l-1.57,4.98c-.72,2.28-.83,4.11-.35,5.54.63,1.71,2.05,2.92,4.28,3.62l8.48,2.67Z"/>
        <path class="cls-2" d="M354.03,635.69l1.07-5.79,22.62,4.17-1.07,5.79-22.62-4.17Z"/>
        <path class="cls-2" d="M417.86,640.17c2.23,1.9,3.32,4.41,3.15,7.57l-.2,3.6c-.17,3.05-1.42,5.49-3.68,7.25-2.21,1.71-5.36,2.43-9.52,2.2l-25.18-1.38,2.33-42.49,25.18,1.38c4.16.23,7.21,1.34,9.22,3.29,2.06,2.06,3.03,4.62,2.86,7.67l-.21,3.77c-.18,3.22-1.53,5.59-3.95,7.13ZM408.27,642.48l-18.19-1-.69,12.53,18.19,1c4.21.23,6.41-1.21,6.58-4.37l.17-3.05c.17-3.16-1.85-4.89-6.06-5.12ZM408.59,636.77c4.21.23,6.41-1.21,6.58-4.37l.18-3.22c.17-3.16-1.85-4.89-6.06-5.12l-18.19-1-.7,12.7,18.19,1Z"/>
        <path class="cls-2" d="M439.86,660.36c-3.1.28-5.66-.33-7.59-1.94-2.04-1.55-3.12-3.68-3.37-6.44l-.21-2.27c-.25-2.77.44-5.06,2.16-7,1.61-1.93,4.02-3.04,7.12-3.32l17.31-1.56-.02-.17c-.3-3.37-2.34-4.92-6.04-4.59l-19.25,1.73-.51-5.64,19.14-1.72c3.98-.36,7.12.42,9.4,2.22,2.28,1.8,3.64,4.52,3.98,8.23l1.01,11.23c.26,2.88-.53,5.23-2.32,7.07-1.63,1.71-4.05,2.65-7.26,2.94l-13.55,1.22ZM450.6,643.95l-10.51.95c-3.43.31-4.96,1.9-4.7,4.77l.1,1.05c.26,2.88,2.04,4.11,5.47,3.8l10.51-.95c3.43-.31,5.08-1.85,4.82-4.73l-.09-1.05c-.26-2.88-2.16-4.16-5.59-3.85Z"/>
        <path class="cls-2" d="M490.27,633.38c3.46-.8,6.19-.86,8.06-.16,2.38.93,3.9,2.8,4.58,5.72l.54,2.33c.68,2.92.14,5.27-1.6,7.1-1.37,1.46-3.86,2.55-7.37,3.36l-20.67,4.79-1.3-5.63,20.67-4.79c2.81-.65,4.05-1.97,3.6-3.91l-.29-1.24c-.45-1.95-2.15-2.64-4.96-1.98l-10.71,2.48c-3.46.8-6.12.91-7.99.2-2.37-.88-3.83-2.76-4.51-5.68l-.55-2.38c-.68-2.92-.21-5.31,1.54-7.14,1.37-1.46,3.79-2.59,7.25-3.39l19.8-4.59,1.3,5.63-19.7,4.57c-2.81.65-3.98,2.01-3.53,3.95l.3,1.3c.45,1.95,2.03,2.61,4.84,1.96l10.71-2.49Z"/>
        <path class="cls-2" d="M537.89,613.3l.79,2.07c.99,2.59.91,5.01-.24,7.29-1.07,2.32-3.06,3.97-5.96,5.08l-16.18,6.2.08.21c1.21,3.16,3.52,4.06,7.05,2.71l19.08-7.31,2.05,5.34-19.03,7.29c-3.74,1.43-6.95,1.59-9.63.48-2.67-1.06-4.67-3.33-6-6.8l-3.96-10.32c-.99-2.59-.96-4.99.17-7.32,1.02-2.3,3.04-4.02,6-5.15l12.81-4.91c2.9-1.11,5.56-1.18,7.9-.17,2.4.98,4.08,2.72,5.07,5.31ZM519.04,626.82l9.91-3.8c3.21-1.23,4.33-3.14,3.29-5.84l-.38-.99c-1.03-2.7-3.16-3.43-6.37-2.2l-9.91,3.79c-3.22,1.23-4.26,3.18-3.22,5.87l.38.99c1.03,2.7,3.09,3.4,6.3,2.17Z"/>
        <path class="cls-2" d="M548.1,619.04l-14.39-25.94,5.83-3.23,5.17,9.33,12.97-7.19c3.46-1.79,6.74-2.28,9.81-1.44,3.07.84,5.65,3.09,7.67,6.73l2.86,5.15c2.02,3.64,2.54,6.98,1.62,10.02-.89,3.1-3.04,5.62-6.49,7.54l-7.63,4.23c-3.5,1.94-6.78,2.43-9.83,1.52-3.07-.84-5.58-3.07-7.6-6.71ZM553.77,615.51c1.16,2.09,2.41,3.43,3.78,4.06,1.67.72,3.53.52,5.57-.61l6.85-3.8c2.04-1.13,3.2-2.6,3.52-4.43.19-1.5-.29-3.27-1.45-5.36l-2.53-4.57c-1.16-2.09-2.44-3.48-3.81-4.11-1.72-.7-3.6-.54-5.64.59l-12.53,6.95,6.25,11.27Z"/>
        <path class="cls-2" d="M600.09,602.74c-2.48,1.87-4.98,2.71-7.47,2.36-2.54-.24-4.59-1.48-6.26-3.69l-1.37-1.82c-1.67-2.22-2.3-4.53-1.86-7.08.35-2.49,1.81-4.7,4.29-6.58l13.88-10.47-.1-.13c-2.04-2.71-4.58-2.94-7.56-.7l-15.44,11.64-3.41-4.52,15.35-11.57c3.19-2.41,6.27-3.41,9.16-3.08,2.89.33,5.48,1.92,7.72,4.89l6.79,9c1.74,2.31,2.31,4.73,1.76,7.23-.48,2.31-2.04,4.39-4.62,6.33l-10.87,8.2ZM600.54,583.13l-8.43,6.36c-2.75,2.07-3.21,4.23-1.47,6.54l.64.84c1.74,2.31,3.91,2.41,6.66.34l8.43-6.36c2.75-2.07,3.33-4.25,1.59-6.56l-.64-.84c-1.74-2.31-4.03-2.39-6.78-.32Z"/>
        <path class="cls-2" d="M625.96,581.9l-28.76-31.5,5-4.57,28.76,31.5-5,4.57Z"/>
        <path class="cls-2" d="M637.01,571.54l-30.26-30.07,4.78-4.81,30.26,30.07-4.78,4.81Z"/>
        <path class="cls-2" d="M647.43,537.63l-8.76-6.28c-3.84-2.75-6.12-6.24-6.86-10.45-.72-3.86.41-7.91,3.45-12.15l13.27-18.51,4.69,3.37-13.11,18.28c-1.85,2.57-2.44,5.22-1.88,7.95.56,2.45,2.1,4.51,4.57,6.21l8.26,5.92c2.41,1.79,4.8,2.55,7.3,2.3,2.82-.3,5.08-1.75,6.93-4.33l13.11-18.28,4.69,3.37-13.27,18.51c-3.04,4.24-6.47,6.64-10.36,7.2-4.23.66-8.26-.39-12.06-3.11Z"/>
        <path class="cls-2" d="M687.44,506.71l-37.07-21.11,3.35-5.89,37.07,21.11-3.35,5.89Z"/>
        <path class="cls-2" d="M700.88,481c-1.69,3.75-4.1,6.25-7.29,7.37-3.11,1.22-6.63.91-10.53-.85l-16.81-7.59,2.74-6.08,16.45,7.43c2.43,1.1,4.38,1.49,5.91,1.08,1.97-.57,3.43-1.93,4.41-4.1l2.33-5.16c1-2.23,1.05-4.22.18-6.07-.7-1.41-2.25-2.72-4.68-3.82l-16.45-7.43,2.74-6.08,16.81,7.59c3.9,1.76,6.43,4.25,7.6,7.33,1.24,3.18.96,6.65-.73,10.4l-2.7,5.97Z"/>
        <path class="cls-2" d="M699.9,450.36l-28.47-8.32,1.87-6.4,10.24,2.99,4.16-14.24c1.2-3.7,3.19-6.36,5.96-7.92,2.77-1.56,6.19-1.78,10.19-.61l5.65,1.65c4,1.17,6.71,3.18,8.21,5.99,1.55,2.83,1.79,6.14.69,9.92l-2.45,8.37c-1.12,3.84-3.12,6.5-5.92,7.99-2.77,1.56-6.12,1.74-10.12.57ZM701.45,443.87c2.29.67,4.12.74,5.55.23,1.7-.66,2.87-2.11,3.53-4.35l2.2-7.52c.66-2.24.45-4.1-.61-5.62-.92-1.2-2.5-2.12-4.8-2.79l-5.01-1.47c-2.29-.67-4.18-.76-5.6-.25-1.71.71-2.94,2.15-3.6,4.39l-4.02,13.76,12.37,3.62Z"/>
      </g>
      <g>
        <path class="cls-2" d="M294.92,60.95l19.35,37.89-5.94,3.03-10.2-19.98-22.46,11.47,10.2,19.98-5.94,3.03-19.35-37.89,5.94-3.03,6.49,12.71,22.46-11.47-6.49-12.71,5.94-3.03Z"/>
        <path class="cls-2" d="M327.71,94.18c-2.95.98-5.58.98-7.83-.14-2.34-1.04-3.88-2.86-4.76-5.5l-.72-2.16c-.88-2.64-.74-5.02.49-7.31,1.12-2.25,3.21-3.88,6.17-4.87l16.49-5.5-.05-.16c-1.07-3.21-3.41-4.25-6.94-3.07l-18.34,6.11-1.79-5.37,18.23-6.08c3.79-1.26,7.03-1.23,9.66,0s4.58,3.57,5.76,7.1l3.57,10.7c.91,2.74.68,5.22-.63,7.41-1.19,2.04-3.34,3.51-6.39,4.53l-12.91,4.3ZM334.38,75.74l-10.01,3.34c-3.27,1.09-4.39,2.99-3.48,5.73l.33,1c.91,2.74,2.93,3.53,6.2,2.44l10.01-3.34c3.27-1.09,4.51-2.97,3.6-5.71l-.33-1c-.91-2.74-3.06-3.55-6.32-2.46Z"/>
        <path class="cls-2" d="M362.15,51.58l6.45-1.2c4.04-.75,7.49-.15,10.27,1.77,2.74,1.98,4.55,5.03,5.33,9.24l3.34,18.02-6.55,1.22-3.28-17.7c-.49-2.62-1.39-4.43-2.59-5.45-1.59-1.29-3.55-1.77-5.95-1.32l-5.57,1.03c-2.35.44-4,1.59-5.03,3.36-.76,1.38-.84,3.38-.36,6l3.28,17.69-6.55,1.22-3.34-18.02c-.78-4.21-.24-7.7,1.66-10.53,1.86-2.77,4.86-4.57,8.9-5.32Z"/>
        <path class="cls-2" d="M416.16,73.59c-2.33,2.93-5.25,4.38-8.75,4.44l-4.11.08c-3.72.07-6.69-1.04-8.9-3.33-2.15-2.13-3.21-5.22-3.28-9.22l-.36-19.21,6.61-.12.36,19.27c.04,2.33.58,4.04,1.59,5.08,1.13,1.2,2.65,1.78,4.53,1.75l2.89-.05c1.89-.04,3.38-.67,4.52-1.92.98-1.07,1.5-2.81,1.46-5.14l-.36-19.27,6.55-.12.36,19.27c.04,2.33.58,4.04,1.6,5.08,1.13,1.2,2.64,1.78,4.53,1.75l2.89-.05c1.89-.04,3.38-.67,4.52-1.92.98-1.07,1.5-2.81,1.46-5.14l-.36-19.27,6.61-.12.36,19.22c.08,4-.98,7.13-3.05,9.33-2.18,2.37-5.1,3.6-8.82,3.67l-4.05.08c-3.44.06-6.41-1.27-8.8-4.11Z"/>
        <path class="cls-2" d="M462.37,54.43c-2.36-.35-4.3.2-5.85,1.54-1.17,1.06-1.9,2.92-2.29,5.56l-2.66,17.8-6.59-.98,6.3-42.19,6.59.98-1.86,12.47c2.06-.98,4.35-1.31,6.82-.95l6.48.97c4.07.61,7.13,2.3,9.14,5.02,1.95,2.76,2.66,6.24,2.03,10.47l-2.71,18.13-6.59-.98,2.66-17.8c.39-2.64.13-4.64-.68-6-1.09-1.73-2.78-2.83-5.2-3.19l-5.6-.84Z"/>
        <path class="cls-2" d="M491.28,86.9c-2.98-.88-5.14-2.39-6.34-4.6-1.32-2.19-1.54-4.57-.75-7.23l.65-2.18c.79-2.66,2.27-4.54,4.59-5.71,2.21-1.2,4.86-1.34,7.84-.46l16.67,4.94.05-.16c.96-3.25-.36-5.44-3.93-6.49l-18.53-5.49,1.61-5.43,18.43,5.46c3.83,1.14,6.46,3.02,7.92,5.53,1.46,2.52,1.72,5.55.66,9.12l-3.2,10.81c-.82,2.77-2.43,4.67-4.76,5.71-2.15.99-4.75.97-7.84.05l-13.05-3.87ZM507.32,75.61l-10.12-3c-3.3-.98-5.31-.07-6.13,2.7l-.3,1.01c-.82,2.77.38,4.57,3.68,5.55l10.12,3c3.3.98,5.4.15,6.22-2.62l.3-1.01c.82-2.77-.47-4.66-3.77-5.64Z"/>
      </g>
    </g>
  </g>
</svg>