<svg width="26" height="35" viewBox="0 0 26 35" fill="none" xmlns="http://www.w3.org/2000/svg">
<path d="M20.1186 0L25.9366 5.83216V29.1655L20.0011 34.9977H0.801758V26.3657H4.05959V8.63197H0.801758V0H20.1186ZM2.89692 32.6653H19.071C19.3834 32.6653 23.0335 28.8132 23.4821 28.2213L23.6043 6.88679C22.3852 5.10872 20.5367 3.71821 19.071 2.09751H2.89692V6.52976H6.15475V28.4632H2.89692V32.6629V32.6653Z" fill="#171230"/>
<path d="M2.89691 32.6653V28.4655H6.15475V6.53211H2.89691V2.09985H19.071C20.5367 3.72055 22.3852 5.10871 23.6042 6.88913L23.4821 28.2236C23.0335 28.8155 19.3834 32.6676 19.071 32.6676H2.89691V32.6653ZM19.421 6.53211H10.5776V28.4655H19.421V6.53211Z" fill="#EB1C24"/>
<path d="M19.421 6.5321V28.4655H10.5776V6.5321H19.421ZM17.3258 8.63196H12.903V26.3657H17.3258V8.63196Z" fill="#171230"/>
</svg>
