<svg width="31" height="35" viewBox="0 0 31 35" fill="none" xmlns="http://www.w3.org/2000/svg">
<g clip-path="url(#clip0_1_255)">
<path d="M30.6031 8.02646L29.5741 0C23.7366 1.3415 17.9004 2.683 12.0629 4.02449C10.9818 4.34685 9.4756 4.88739 7.80049 5.80237C6.28726 6.63007 4.8064 7.43947 3.46631 8.99353C2.53022 10.0788 0.805839 12.0805 0.946605 14.8156C1.13242 18.4488 4.46153 20.556 4.85145 20.7953C4.56006 20.038 3.26361 16.4217 5.03303 12.7576C6.41113 9.90428 8.89283 8.59234 10.0021 8.00535C11.8644 7.01999 13.5944 6.69904 14.698 6.58221L10.0021 19.2807C10.0021 19.2807 7.73855 27.1762 3.82104 30.3998C3.82104 30.3998 1.42802 32.1608 0.938159 32.3128L0.0499268 35C0.988834 34.8043 14.0378 32.0791 19.1378 30.473C19.5558 30.3407 20.5933 30.0056 21.7462 29.2258C22.4514 28.7486 24.6586 27.2565 25.4539 24.3877C25.9452 22.6182 26.3478 20.4082 26.1085 19.4947C25.7495 20.8347 24.2926 23.6374 22.3641 25.3055C21.7799 25.8108 20.6496 26.6554 16.1831 27.9082C14.3602 28.4192 11.863 29.0315 8.81963 29.5115C10.3793 28.6402 11.428 27.6633 12.0629 26.9834C13.555 25.3829 14.2771 23.7894 14.9134 22.3536C15.5778 20.8516 15.9593 19.5397 16.1831 18.6177L23.0834 17.1059L24.1392 14.2849L17.2135 15.846C18.5522 12.2537 19.8923 8.65991 21.2309 5.06757C22.5316 4.61149 23.6423 4.44398 24.4235 4.37782C25.5328 4.2835 26.1 4.24268 26.7659 4.52421C27.8343 4.97466 28.417 5.92202 28.8239 6.58221C29.2293 7.24099 29.4503 7.84488 29.5727 8.25451L30.6031 8.02787V8.02646Z" fill="#CF5B2A"/>
</g>
<defs>
<clipPath id="clip0_1_255">
<rect width="30.5532" height="35" fill="white" transform="translate(0.0499268)"/>
</clipPath>
</defs>
</svg>
