<svg width="52" height="35" viewBox="0 0 52 35" fill="none" xmlns="http://www.w3.org/2000/svg">
<path d="M38.4081 0C38.4307 0.600269 37.456 4.54812 37.2528 4.67796C36.9385 4.87742 34.624 4.55565 34.4641 4.71183L33.5157 8.65403C37.8719 8.5035 42.1547 8.69543 45.9915 10.9497C49.3861 12.9444 51.1606 15.9438 51.9547 19.7581V23.5215C50.7974 28.9785 46.1383 32.9828 40.8525 34.3414C39.859 34.5973 38.7732 34.5804 37.8418 35H23.7288C23.7815 34.396 24.681 30.4519 24.8823 30.3202C25.2305 30.0944 27.2797 30.5328 27.513 30.1866C28.0681 29.3661 28.3428 26.3083 28.8076 25.2151H6.60708L7.16971 22.7688C5.12052 23.5798 3.04874 27.3546 0.961914 24.6505V23.5215C3.7224 19.5417 7.99202 16.5573 12.2108 14.2597L14.6966 4.98091C14.7474 4.59892 14.6815 4.74005 14.4219 4.7043C14.038 4.65161 12.3294 4.77957 12.2522 4.7043L13.3813 0H38.4081ZM24.6716 1.50538H14.5103C14.4237 1.50538 14.2883 2.96371 14.134 3.19704C14.7116 3.32124 16.5256 2.83575 16.5858 3.66747L14.2299 13.1739L19.3651 11.2508L21.388 3.5828C21.7568 2.78306 23.9716 3.44167 24.2783 3.18011C24.3442 3.12366 24.5643 1.77258 24.6735 1.50538H24.6716ZM36.5264 1.50538H26.3651C26.2786 1.50538 26.2071 2.94113 25.9888 3.19704C26.6549 3.32876 28.3146 2.81882 28.4426 3.67312C28.6044 4.75134 26.9899 8.07258 27.0237 9.41048L31.8315 8.76129C32.159 8.53925 32.8251 4.24516 33.3125 3.51505C33.7358 2.88091 35.8848 3.39086 36.1294 3.17823C36.1934 3.12177 36.4944 1.76129 36.5245 1.50349L36.5264 1.50538ZM26.5533 4.7043H22.6017C22.3928 6.47876 21.3184 8.57124 21.0982 10.261C21.0568 10.5753 21.0794 10.5583 21.3767 10.5414C22.5622 10.4737 24.1598 9.74543 25.3866 9.55914L26.5514 4.7043H26.5533ZM8.67697 23.7097H18.556C18.7969 23.7097 19.0396 22.4753 19.0264 22.2062C18.3622 22.0745 16.6969 22.5844 16.5727 21.7301C16.3901 20.4901 18.0592 16.896 18.1778 15.4282C18.2813 15.2909 20.6466 14.6473 21.0587 14.5457C22.0184 14.3086 24.6697 13.6858 25.5165 13.7309C25.7912 13.746 25.8608 13.6651 25.7818 13.9981C24.7939 16.0511 24.6641 19.5981 23.6875 21.5043C22.8369 23.1659 20.3963 20.9774 20.5318 23.7116H30.4108C30.6517 23.7116 30.8944 22.4771 30.8813 22.2081C30.6197 21.9616 28.2356 22.7444 28.4237 21.5551L30.5125 13.3715C36.1256 13.1005 44.0702 12.8409 44.9415 20.0968C45.5361 25.0532 42.8904 28.828 38.5361 30.8978C37.6555 31.3156 34.2025 32.4616 33.5947 31.6261C33.3087 31.2328 35.8302 23.3597 35.9619 22.2081H31.2576L28.7098 31.421C28.3598 32.2075 26.3012 31.5715 26.0076 31.8237C25.9436 31.8782 25.5899 33.4683 25.7084 33.5003C33.8243 33.3215 42.7587 34.9962 48.3775 27.7554C51.838 23.2976 50.8106 16.4218 46.3754 13.0215C39.5522 7.7922 24.4552 10.6204 16.9603 13.65C11.5372 15.8422 6.12159 19.4269 2.47294 23.9995L12.5401 17.6957C12.8393 17.6656 12.8563 17.6524 12.7961 17.9497C12.6606 18.6196 11.9154 21.4215 11.5918 21.8298C10.7638 22.8761 8.44363 21.1712 8.67885 23.7153L8.67697 23.7097ZM30.3168 20.6989H37.8436C37.4071 23.8489 36.0353 26.9632 35.4256 30.0454C35.3635 30.3634 35.3729 30.2976 35.6797 30.2995C36.8106 30.3089 40.0716 28.286 40.9466 27.4712C43.406 25.1812 44.1399 21.7828 43.0146 18.6328C42.0192 15.8497 38.9444 15.0669 36.2423 14.8675C35.563 14.8167 32.3735 14.7414 31.9407 14.8901C31.7901 14.9409 31.7055 15.0293 31.6697 15.1836L30.3168 20.6989ZM18.4619 20.6989H22.4135C22.6149 19.0468 23.3375 17.4774 23.7119 15.8798C23.7834 15.5769 23.7326 15.5976 23.4485 15.6164C22.9856 15.6484 19.5834 16.4349 19.4442 16.6043C19.2974 16.7812 18.3133 20.5503 18.46 20.7008L18.4619 20.6989Z" fill="#EBC353"/>
<path d="M24.6716 1.50537C24.5625 1.77258 24.3423 3.12365 24.2764 3.1801C23.9697 3.44354 21.7549 2.78306 21.3861 3.58279L19.3633 11.2508L14.228 13.1739L16.584 3.66747C16.5256 2.83575 14.7116 3.32123 14.1321 3.19704C14.2845 2.9637 14.4219 1.50537 14.5084 1.50537H24.6697H24.6716Z" fill="#467A54"/>
<path d="M36.5264 1.50537C36.4982 1.76317 36.1971 3.12365 36.1313 3.1801C35.8885 3.39274 33.7377 2.88279 33.3143 3.51693C32.827 4.24516 32.1608 8.54112 31.8334 8.76317L27.0256 9.41236C26.9918 8.07634 28.6063 4.7551 28.4444 3.67499C28.3165 2.82069 26.6549 3.33064 25.9907 3.19892C26.2071 2.94301 26.2805 1.50725 26.367 1.50725H36.5283L36.5264 1.50537Z" fill="#467A54"/>
<path d="M8.67697 23.7097C8.44175 21.1675 10.7619 22.8704 11.5899 21.8242C11.9135 21.4159 12.6587 18.614 12.7942 17.9441C12.8544 17.6468 12.8375 17.6599 12.5383 17.6901L2.47105 23.9938C6.12159 19.4231 11.5353 15.8366 16.9584 13.6444C24.4533 10.6148 39.5504 7.78656 46.3735 13.0159C50.8087 16.4161 51.8361 23.2919 48.3756 27.7497C42.7568 34.9906 33.8224 33.3159 25.7065 33.4946C25.5899 33.4626 25.9418 31.8745 26.0057 31.818C26.2993 31.5659 28.3579 32.2019 28.7079 31.4153L31.2557 22.2024H35.96C35.8283 23.354 33.3049 31.2272 33.5928 31.6204C34.2006 32.4559 37.6536 31.3099 38.5342 30.8922C42.8885 28.8223 45.5342 25.0476 44.9396 20.0911C44.0684 12.8352 36.1237 13.0968 30.5106 13.3659L28.4219 21.5495C28.2337 22.7406 30.6178 21.9559 30.8794 22.2024C30.8926 22.4715 30.6498 23.7059 30.409 23.7059H20.5299C20.3944 20.9718 22.835 23.1602 23.6856 21.4987C24.6622 19.5944 24.792 16.0454 25.7799 13.9925C25.8571 13.6594 25.7893 13.7403 25.5146 13.7253C24.6697 13.6801 22.0165 14.303 21.0568 14.5401C20.6447 14.6417 18.2794 15.2852 18.1759 15.4226C18.0573 16.8903 16.3883 20.4844 16.5708 21.7245C16.6969 22.5788 18.3622 22.0688 19.0245 22.2005C19.0377 22.4696 18.795 23.704 18.5541 23.704H8.67509L8.67697 23.7097Z" fill="#467A54"/>
</svg>
