<svg width="45" height="36" viewBox="0 0 45 36" fill="none" xmlns="http://www.w3.org/2000/svg">
<g clip-path="url(#clip0_1_5)">
<path d="M14.0352 30.2001C14.7849 23.3553 15.5345 16.517 16.2842 9.6721C15.5932 9.91982 14.8957 10.1675 14.2047 10.4153C12.5163 10.9889 10.691 11.7386 8.78748 12.7295C8.13559 13.0684 7.50978 13.4205 6.91656 13.766L0 0.5H44.661L37.7249 13.9355C36.7536 13.1271 35.867 12.5926 35.2216 12.2471C33.605 11.3801 32.1838 11.015 30.8866 10.6825C29.8566 10.4218 28.983 10.2653 28.3768 10.1741L30.5737 30.2458L22.3338 35.5L14.0417 30.2001H14.0352Z" fill="#ED002D"/>
<path d="M16.4211 29.0984L17.6011 8.35528C16.2582 8.37483 14.9022 8.49869 13.5789 8.72034C11.8188 9.00717 10.0848 9.47653 8.41593 10.0958L7.71189 10.3566L2.1969 1.70599H42.4577L36.9492 10.3631L36.2451 10.1023C34.5763 9.47653 32.8423 9.01369 31.0822 8.72685C29.7588 8.50521 28.4029 8.38787 27.06 8.3618L28.2399 29.105L22.3338 32.3253L16.4277 29.105L16.4211 29.0984Z" fill="white"/>
<path d="M3.89178 2.63821L8.08996 9.23535C9.52412 8.7008 11.3168 8.15973 13.4289 7.81422C15.3846 7.48828 17.1317 7.41005 18.5854 7.44265L17.3859 28.5769L22.3338 31.2758L27.2816 28.5769L26.0821 7.44265C27.5293 7.41657 29.2829 7.4948 31.2386 7.81422C33.3442 8.15973 35.1434 8.7008 36.5776 9.23535L40.7757 2.63821H3.89178Z" fill="#ED002D"/>
<path d="M18.5789 7.42961C17.1317 7.40353 15.3781 7.48176 13.4224 7.80118C11.3168 8.14669 9.51758 8.68775 8.08342 9.2223L6.12775 6.1519C8.33766 5.8064 10.691 5.50653 13.1747 5.28489C16.4276 4.99805 19.4915 4.87419 22.3272 4.86768L18.5789 7.42309V7.42961Z" fill="#ED002D"/>
<path d="M22.3272 4.87419V25.5L17.3794 28.5639L22.3272 31.2627L27.2751 28.5639L26.0756 7.4296C27.5228 7.40353 29.2764 7.48175 31.2321 7.80118C33.3377 8.14668 35.1369 8.68775 36.5711 9.2223L38.618 6.00196C36.2516 5.62387 33.6832 5.31096 30.9387 5.10235C27.8553 4.87419 24.9739 4.81552 22.3272 4.86115V4.87419Z" fill="#ED002D"/>
</g>
<defs>
<clipPath id="clip0_1_5">
<rect width="44.661" height="35" fill="white" transform="translate(0 0.5)"/>
</clipPath>
</defs>
</svg>
