<svg width="43" height="35" viewBox="0 0 43 35" fill="none" xmlns="http://www.w3.org/2000/svg">
<g clip-path="url(#clip0_2_270)">
<path d="M42.9619 0L24.3613 1.71172L23.1723 4.15966L11.4443 5.23454L6.81711 14.7576L9.25033 14.5367L0.67334 32.103L12.567 31.0134L15.7512 24.4867L19.3108 35L30.564 33.9656L25.5797 19.2596L42.9619 0ZM28.7234 32.3202L20.2568 33.0969L15.9794 20.467L11.6799 29.2759L2.95563 30.0747L11.5289 12.5084L9.09204 12.7293L12.3314 6.06647L23.5073 5.04312L18.9685 14.3379L23.7429 9.04449L22.0091 9.20278L25.2484 2.53997L39.6195 1.21845L24.0373 18.4865L28.7234 32.3165V32.3202Z" fill="#670018"/>
<path d="M37.3887 2.34119L25.8411 3.40135L23.5294 8.15734L25.9699 7.93647L16.3144 18.6375L20.8863 32.1287L27.4939 31.5213L23.0066 18.2804L37.3887 2.34119Z" fill="#670018"/>
<path d="M12.9204 6.92785L10.6087 11.6838L13.0529 11.4593L4.47961 29.0292L11.0872 28.4219L21.9833 6.09592L12.9204 6.92785Z" fill="#670018"/>
</g>
<defs>
<clipPath id="clip0_2_270">
<rect width="42.2886" height="35" fill="white" transform="translate(0.67334)"/>
</clipPath>
</defs>
</svg>
