<svg width="33" height="35" viewBox="0 0 33 35" fill="none" xmlns="http://www.w3.org/2000/svg">
<path d="M16.1264 35C12.1766 31.3253 6.85701 28.4705 1.48739 27.5505C2.51982 20.0311 4.40719 11.2517 0 4.46968L5.20963 4.2197V25.8157L15.1314 30.7803C15.0389 29.8954 13.9065 18.6112 14.5165 18.6137L18.0712 20.5185L17.3688 30.7803L27.2906 25.8157V4.2197L32.5002 4.46968C28.143 11.1817 29.8529 20.0911 31.0128 27.5505C25.6732 28.493 20.2786 31.2628 16.3738 35H16.1264Z" fill="#969696"/>
<path d="M11.6617 14.8939L20.721 10.1818L20.876 3.63475L24.0683 2.23485V11.9167L19.6036 14.2765C20.4685 14.8314 23.9033 16.1264 24.0708 17.0038C24.1858 17.6087 24.1658 24.0208 24.0308 24.4133L20.846 26.0656V18.2462L16.2563 15.9064L11.6667 18.2462V26.0656L8.44189 24.4533V2.23235L11.6667 3.59725V14.8914L11.6617 14.8939Z" fill="#969696"/>
<path d="M17.8287 8.89936L14.3915 10.4218L16.1289 0L17.3013 4.40969L17.8287 8.89936Z" fill="#969696"/>
</svg>
