<svg width="39" height="36" viewBox="0 0 39 36" fill="none" xmlns="http://www.w3.org/2000/svg">
<path d="M21.9559 35.5H12.1495L15.4191 12.4016H10.3997C9.96277 12.4016 8.43603 13.3105 8.41958 13.9119C8.36791 15.8097 12.9317 15.9647 9.20175 17.5032C5.88284 18.8726 1.49756 17.2636 0.243286 13.8015V10.7691C0.696611 10.1279 0.856332 9.33162 1.30966 8.68334C7.33442 0.0513724 25.8386 6.63986 34.952 2.63979C36.2791 2.05728 37.4723 1.15298 38.7618 0.5C39.2222 6.15365 35.6097 10.3581 30.3084 11.765C28.5115 12.2418 26.8157 12.0116 25.0893 12.6153L21.9536 35.4977L21.9559 35.5ZM11.0996 11.2342C12.8025 11.0322 14.8413 11.3822 16.5865 11.2342L13.3169 34.5675H21.0211L24.3024 11.2483C30.0594 11.7533 37.4582 9.09674 37.5968 2.36967C36.9532 2.78542 36.3566 3.24579 35.659 3.57932C27.1821 7.62637 8.43837 1.24458 2.58273 8.78904C-1.41734 13.9424 3.71956 18.2149 9.11484 16.5989L7.60219 14.9641C6.62272 12.6599 9.28396 11.4503 11.0996 11.2342Z" fill="#C20E42"/>
<path d="M11.0996 11.2342C9.28395 11.4479 6.62272 12.6599 7.60219 14.9641L9.11484 16.5989C3.71956 18.2149 -1.41734 13.9424 2.58273 8.78903C8.43837 1.24457 27.1821 7.62635 35.6567 3.57696C36.3566 3.24343 36.9532 2.78305 37.5945 2.36731C37.4559 9.09437 30.0571 11.7533 24.3001 11.2459L21.0187 34.5651H13.3146L16.5841 11.2318C14.8413 11.3798 12.8025 11.0298 11.0973 11.2318L11.0996 11.2342ZM10.8671 10.5319C12.9293 10.2876 15.4097 10.7127 17.5213 10.5319L14.2517 33.8652H20.206L23.5907 10.5319C28.5914 10.957 35.4852 9.38798 36.6643 3.76722C35.0272 4.61515 33.0401 5.45838 31.1775 5.62984C24.4105 6.25228 9.38026 3.87526 4.33731 7.97163C-0.144272 11.6147 1.90861 16.8667 7.71728 16.1291C5.04665 13.3411 7.82768 10.8912 10.8694 10.5319H10.8671Z" fill="#FDFDFD"/>
<path d="M10.8671 10.5319C7.82533 10.8913 5.04665 13.3411 7.71493 16.1292C1.90626 16.8667 -0.146621 11.6147 4.33496 7.97166C9.37791 3.87529 24.4058 6.25231 31.1751 5.62987C33.0377 5.4584 35.0248 4.61517 36.662 3.76724C35.4829 9.39036 28.589 10.957 23.5884 10.5319L20.2037 33.8652H14.2494L17.519 10.5319C15.4097 10.7127 12.927 10.2876 10.8647 10.5319H10.8671Z" fill="#C20E42"/>
</svg>
