<svg width="36" height="35" viewBox="0 0 36 35" fill="none" xmlns="http://www.w3.org/2000/svg">
<path d="M17.7099 35L19.2299 29.26L17.1099 30.82L6.16991 30.86C5.07991 30.67 4.56991 29.64 4.81991 28.6C7.02991 21.11 8.63991 13.42 10.8799 5.93C11.8099 2.81 13.4299 0.889998 16.7399 0.209998C22.4799 0.299998 28.6099 -0.220002 34.3199 0.109998C34.5599 0.119998 34.7899 0.189998 35.0299 0.199998L31.9399 3.15H17.5699C15.9799 3.19 14.9299 4.45 14.4299 5.84L8.49991 27.78L19.6299 27.81L21.5899 20.39L14.6599 20.47L17.1499 17.94H25.7299L21.2499 35H17.6999H17.7099Z" fill="#D00E31"/>
<path d="M0.129913 29.34C2.24991 21.71 4.00991 13.95 6.23991 6.35C6.62991 5.02 6.90991 3.97 7.81991 2.87C9.43991 0.909995 11.8699 0.219995 14.3299 0.119995L13.0899 0.859995C12.0499 1.59 11.1999 2.58 10.6299 3.72C8.40991 11.78 5.94991 19.84 3.95991 27.97C3.72991 28.93 3.49991 29.47 3.97991 30.44C4.27991 31.05 5.30991 31.96 6.00991 31.96H15.8599L12.3099 35H4.69991C2.33991 34.61 0.529913 32.79 0.129913 30.44L0.129913 29.34Z" fill="#D00E31"/>
<path d="M22.2799 35L27.0999 16.93H18.2199L20.7199 14.39H31.2399L25.6599 35H22.2799Z" fill="#D00E31"/>
<path d="M30.8999 4.25999L27.8999 7.29999H15.3499C15.4499 6.31999 16.0499 5.17999 16.8999 4.66999C17.0599 4.57999 17.7099 4.25999 17.8499 4.25999H30.9099H30.8999Z" fill="#D00E31"/>
</svg>
