<svg width="38" height="35" viewBox="0 0 38 35" fill="none" xmlns="http://www.w3.org/2000/svg">
<path d="M37.6453 5.56236C37.7322 6.24995 37.5823 7.08458 37.6453 7.79178L32.772 29.0427C31.4108 33.2187 26.6187 34.5673 22.6569 34.8166C19.1392 35.0378 13.7378 35.0812 10.2439 34.8236C4.9882 34.4356 1.7967 31.0803 0 26.3918L6.82691 27.1494C7.57892 24.1484 7.93322 20.751 8.85328 17.8214C9.95259 14.3176 13.3555 11.0785 16.9013 10.122C18.4166 9.71312 19.922 9.75653 21.4722 9.60389L17.708 27.1564C19.6517 26.9379 21.2916 26.1607 21.9315 24.2044L25.0964 9.32521C20.9037 9.51006 16.5036 9.08014 12.3333 9.31961C11.36 9.37563 10.2747 9.54087 9.34202 9.81395C5.96287 10.8026 3.89589 13.9703 1.39619 16.2249C0.943864 16.463 0.957868 15.7824 0.966271 15.5233C1.22534 7.89681 4.94338 0.653983 13.3107 0.123235C19.4276 -0.264674 25.9633 0.413116 32.1236 0.144241C34.7773 0.453727 37.3064 2.89741 37.6453 5.56236ZM1.67487 27.4351C2.33305 29.7751 4.288 31.9934 6.55664 32.9344C10.3293 34.5015 20.8518 34.255 24.9872 33.5226C29.1604 32.7846 31.0719 31.0425 32.2776 27.015C34.1612 20.7244 35.0112 13.6916 36.6679 7.30024C36.8863 3.98692 34.7171 1.4424 31.4402 1.10491C25.3513 1.53763 18.3311 0.449526 12.3585 1.25895C5.3425 2.21122 2.29104 8.11247 1.81491 14.6173C2.05718 14.6803 2.09359 14.5151 2.23363 14.41C3.09767 13.7533 4.14796 12.238 5.08762 11.4104C8.46957 8.43316 10.9329 8.46117 15.2629 8.34354L26.1523 8.47937L26.1761 9.21598C24.85 14.0053 24.357 19.3968 22.9664 24.1204C22.0772 27.1424 19.5215 28.0106 16.5932 27.991L20.2861 10.5758C17.9992 10.776 16.0289 11.1947 14.0963 12.4719C8.66143 16.0639 9.30561 22.3545 7.53831 27.9308C5.56656 28.1661 3.60041 27.8104 1.67487 27.4351Z" fill="#314879"/>
<path d="M2.92963 28.4098C4.64651 28.5442 6.33258 28.9895 8.06907 28.8089C9.09135 25.4829 9.48066 21.7901 10.4973 18.4866C11.6653 14.6859 15.2181 11.7157 19.2414 11.5518L15.6158 28.8257C19.114 28.8607 22.6359 28.2851 23.8025 24.5391C25.3107 19.6965 25.7742 14.0249 27.1746 9.09415C27.253 8.40375 27.0654 7.64334 26.2742 7.52011C21.5128 7.77218 16.3594 7.1532 11.6457 7.5131C8.32534 7.76657 5.29629 9.60669 3.2097 12.1092C3.66623 7.60693 6.85913 3.34554 11.4034 2.39607C17.285 1.16653 25.1903 2.65794 31.3002 2.08098C34.3754 2.46189 35.9873 4.6297 35.6778 7.70356C34.269 13.4046 33.3139 19.2386 31.8631 24.927C30.1673 31.5704 27.26 32.8672 20.5746 33.1501C17.3873 33.2845 13.427 33.2369 10.2537 33.003C7.24003 32.7818 4.22639 31.2413 2.93243 28.4084L2.92963 28.4098Z" fill="#314879"/>
</svg>
