<svg width="35" height="36" viewBox="0 0 35 36" fill="none" xmlns="http://www.w3.org/2000/svg">
<g clip-path="url(#clip0_1_166)">
<path d="M16.0471 14.2975L17.2116 16.5759C17.2116 16.5759 19.3572 15.8038 20.1167 15.5316C19.8509 16.5759 16.699 28.924 16.699 28.924C16.5851 29.4367 16.1294 30.3038 15.3889 30.5L14.7876 30.6582L13.5787 35.4937L15.3446 34.9873C22.18 33.038 31.9965 30.7848 32.0851 30.7658L32.6863 30.6266L34.237 25.4557L32.3762 25.1202L32.2623 25.2215C31.4965 25.8924 30.161 26.8987 29.5724 27.0253C29.5724 27.0253 25.4332 27.981 24.3003 28.2405C24.8382 26.2215 29.6294 8.12024 29.6294 8.12024L16.0471 14.2911V14.2975Z" fill="#0066B3"/>
<path d="M11.8066 0.683537C7.24963 1.51265 4.52811 4.26582 4.52811 8.0443C4.52811 8.37341 4.5471 8.72151 4.5914 9.06961C4.8952 11.4873 6.46482 13.481 7.98381 15.4114C8.4395 15.9873 8.86988 16.5506 9.26229 17.1076C8.57242 17.3734 0.654694 20.3987 0.654694 20.3987L0.768618 21.2278C1.00912 23.0063 1.97748 24.6392 3.42685 25.7152C4.65469 26.6202 6.83824 27.5759 10.2813 27C15.0598 26.1962 18.642 21.9937 18.256 17.6329C18.0155 14.9051 16.4522 13.0316 14.9395 11.2215C13.4965 9.49999 12.142 7.86708 12.2876 5.68987C12.3572 4.63923 12.8003 4.02531 13.5028 3.99366C13.8003 3.98101 14.0218 4.0886 14.2117 4.35442C14.4395 4.67088 14.5661 5.14556 14.5661 5.60126C14.5661 5.83544 14.5344 6.06328 14.4585 6.25316L14.3256 6.60759L15.1484 7.89873L20.699 5.56961L20.5598 4.7405C20.3699 3.66455 19.6674 2.65822 18.5724 1.8924C16.8256 0.651891 14.3509 0.215182 11.8066 0.683537ZM10.5534 19.481C10.6294 19.7215 10.6927 19.943 10.718 20.1519C10.7623 20.4367 10.7813 20.7215 10.7813 20.981C10.7813 21.8165 10.5787 22.4873 10.18 22.9683C9.78761 23.443 9.21166 23.7152 8.50912 23.7468C7.73064 23.7848 7.06609 23.557 6.53444 23.057C6.14836 22.6962 5.86355 22.2089 5.70533 21.6962C6.61039 21.2848 9.57242 19.924 10.5534 19.4747V19.481Z" fill="#0066B3"/>
<path d="M32.5281 26C31.8382 26.576 30.4965 27.6076 29.737 27.7658L24.18 29.0506C23.8572 29.1203 23.6104 29.1013 23.5154 29C23.4142 28.8924 23.4079 28.6076 23.5154 28.2342L28.4838 9.48102L17.0851 14.6646L17.5851 15.6329C17.5851 15.6329 20.4142 14.6139 21.2053 14.3291C20.9458 15.3418 17.4395 29.1013 17.4395 29.1013C17.2496 29.943 16.5977 30.962 15.5914 31.2342L15.4205 31.2785L14.642 34.3987L15.1357 34.2595C21.9395 32.3228 31.8192 30.0443 31.9142 30.0253L32.0851 29.9873L33.2433 26.1266L32.5281 26Z" fill="white"/>
<path d="M32.8066 26.5633L31.8509 29.7405C31.8509 29.7405 21.9458 32.0127 15.0534 33.981L15.6673 31.5317C16.8319 31.2152 17.5344 30.057 17.7306 29.1836L21.6357 13.8671L17.7306 15.2722L17.4964 14.8165L28.0344 10.0253L23.2243 28.1709C23.0091 28.9494 23.1294 29.5949 24.2433 29.3608L29.8002 28.076C30.5534 27.9114 31.7116 27.0506 32.4015 26.5L32.8066 26.576V26.5633Z" fill="#0066B3"/>
<path d="M15.4775 6.9367L19.8572 5.09493L19.8192 4.86075C19.6673 3.98733 19.0724 3.15189 18.1483 2.50632C16.5534 1.3924 14.2876 0.999992 11.9395 1.43037C7.32556 2.27214 4.85721 5.09493 5.35088 8.97468C5.62936 11.1772 7.13569 13.0949 8.59139 14.9367C9.94582 16.6645 11.2306 18.2911 11.4775 20.0443C11.68 21.4747 11.4332 22.6519 10.7749 23.4557C10.2433 24.1013 9.47746 24.462 8.55341 24.5126C7.57873 24.5633 6.69898 24.2532 6.02177 23.6202C5.23695 22.8861 4.90151 21.9367 4.83822 21.2658C5.18632 21.1076 10.6673 18.5949 10.6673 18.5949L10.1167 17.6013L1.50278 20.8987L1.53442 21.1329C1.74328 22.7089 2.60404 24.1582 3.88885 25.1076C5.47746 26.2785 7.64835 26.6772 10.1673 26.2532C14.0028 25.6076 17.9015 22.1519 17.5091 17.7025C17.2939 15.2152 15.8066 13.4367 14.3635 11.7152C12.8256 9.87341 11.3699 8.1329 11.5344 5.64556C11.6357 4.20885 12.3762 3.2848 13.4775 3.2405C14.1737 3.20885 14.5977 3.5886 14.8382 3.91138C15.3382 4.59493 15.4901 5.71518 15.1927 6.51898L15.4838 6.94303L15.4775 6.9367Z" fill="white"/>
<path d="M15.7496 6.5L19.5281 4.91139C19.1737 2.8481 16.0281 0.987341 11.9964 1.72785C7.36354 2.57595 5.20531 5.41139 5.64835 8.93671C6.16733 13.0633 11.237 16.2342 11.7749 20.0063C12.2053 23.0443 10.6547 24.7089 8.56607 24.8165C5.87619 24.9557 4.55341 22.5949 4.52176 21.0823L10.2433 18.4557L9.97746 17.9684L1.82556 21.0886C2.19898 23.8544 4.78126 26.8481 10.1167 25.9557C14.0851 25.2848 17.5661 21.7848 17.2116 17.7215C16.7686 12.7089 10.9015 10.5949 11.2433 5.62025C11.3635 3.91772 12.2939 2.98734 13.4711 2.93671C15.161 2.86076 15.8699 4.8038 15.5851 6.22152L15.7496 6.50633V6.5Z" fill="#0066B3"/>
</g>
<defs>
<clipPath id="clip0_1_166">
<rect width="33.5823" height="35" fill="white" transform="translate(0.661011 0.5)"/>
</clipPath>
</defs>
</svg>
