<svg width="32" height="35" viewBox="0 0 32 35" fill="none" xmlns="http://www.w3.org/2000/svg">
<path d="M15.7527 0L9.65268 22.7972L18.8038 21.9944L22.5177 13.8117L23.8616 21.4533L31.1138 23.0756C31.2066 23.1683 30.8705 23.2817 30.8182 23.3067C28.2843 24.5172 25.6338 25.5122 23.086 26.6944L19.4116 35.0006C19.331 34.99 19.3193 34.9244 19.3055 34.8578C18.9299 33.0617 18.6743 31.1583 18.3588 29.3428C18.3205 29.1228 18.0855 27.47 17.9905 27.4522L4.66101 29.2317L11.8149 2.52L11.7205 2.39667L6.71323 0.832222C6.65268 0.751111 6.59823 0.781667 6.7399 0.776667C9.28268 0.681111 11.8749 0.246667 14.4216 0.111111L15.1977 0H15.7521H15.7527ZM22.9193 22.3956L21.9916 17.195L19.4288 22.8556C18.5777 23.1889 17.7682 23.6744 16.8827 23.9L7.26823 24.8772L9.63157 26.9439L16.7782 25.9556L18.9638 26.4089L19.9116 31.6167L22.4055 25.9844L27.8977 23.5733L22.9199 22.3961L22.9193 22.3956Z" fill="#EE3E42"/>
<path d="M6.71324 0.832221L11.7205 2.39666L11.8149 2.52L4.66157 29.2311L17.991 27.4517C18.086 27.4694 18.321 29.1222 18.3594 29.3422L0.502686 32.4483L8.53157 2.45611C8.53102 2.31833 6.93602 1.13 6.71324 0.831665V0.832221Z" fill="#CD162C"/>
<path d="M22.9194 22.3956L27.8971 23.5728L22.4049 25.9839L19.911 31.6161L18.9633 26.4083L16.7777 25.955L9.63103 26.9433L7.2677 24.8767L16.8821 23.8994C17.7677 23.6739 18.5766 23.1889 19.4283 22.855L21.991 17.1944L22.9188 22.395L22.9194 22.3956ZM21.4638 21.0778C21.3794 20.9928 21.3677 21.1067 21.3399 21.1494C20.8877 21.8461 20.5421 22.775 20.1188 23.5039L17.7494 24.74L17.8194 24.8628L19.7877 25.5278L20.411 27.7339C20.5233 27.8206 21.6171 25.3933 21.8005 25.2694L24.181 23.9894L22.0471 23.24C21.8983 22.9839 21.5438 21.1583 21.4633 21.0778H21.4638Z" fill="#FBB931"/>
<path d="M21.4638 21.0778C21.5438 21.1589 21.8982 22.9844 22.0477 23.24L24.1816 23.9894L21.801 25.2694C21.6177 25.3928 20.5232 27.8206 20.4116 27.7339L19.7882 25.5278L17.8199 24.8628L17.7499 24.74L20.1194 23.5039C20.5427 22.775 20.8888 21.8461 21.3405 21.1494C21.3682 21.1072 21.3799 20.9928 21.4644 21.0778H21.4638Z" fill="#02493A"/>
</svg>
