<?xml version="1.0" encoding="UTF-8"?>
<svg id="Layer_2" data-name="Layer 2" xmlns="http://www.w3.org/2000/svg" viewBox="0 0 1103.04 813.29">
  <defs>
    <style>
      .cls-1 {
        fill: #d1d0d3;
      }

      .cls-2 {
        fill: #820125;
      }

      .cls-3 {
        fill: #ea038b;
      }

      .cls-4 {
        fill: #fdfcfc;
      }

      .cls-5 {
        fill: #fefefe;
      }

      .cls-6 {
        fill: #600214;
      }
    </style>
  </defs>
  <g id="Layer_1-2" data-name="Layer 1">
    <g id="CKoYbd">
      <g>
        <path class="cls-5" d="M947,272.14c-2.92-.76-7.55,2.45-9.51.02-1.37-1.69-7.26-19.86-9.02-23.98C852.24,69.49,662.7-30.78,470.81,8.46,312.5,40.83,186.22,169.39,155.06,327.71c-23.49,2.66-47.38,3.33-70.6,7.4l-38.43,79.58c-.28,1.71-.06,1.52,1.48,1.49,4.53-.08,8.9-1.72,14-1.04,1.38.18,1.74-.55,1.46,1.47L0,547.14h8.49s89.57-8.44,89.57-8.44c1.34-.44,1.97-1.15,2.8-2.2,6.49-8.15,11.45-27.15,17.9-37.07.63-.97-.11-1.79,2.23-1.29l23.11,70.89c1.57,1.35,31.32-3.98,35.91-2.4,52.13,120.44,161.6,211.77,290.8,238.19,220.36,45.06,433.2-94.26,480.7-312.67,2.31-10.62,3.46-21.45,5.98-32.02l1.99-1.01,46.99-4.01,2.42-1.58c27.7-59.13,58-117.06,85.96-176.04,1.06-2.24,8.9-18.62,8.14-19.35l-114.3,10.19-35.21,37.79c-2.39.43-1.21-1.09-1.46-2.51-1.8-10.47-3.96-20.91-5.03-31.49Z"/>
        <path class="cls-6" d="M947,272.14c1.07,10.58,3.23,21.02,5.03,31.49.24,1.41-.94,2.94,1.46,2.51l35.21-37.79,114.3-10.19c.76.73-7.08,17.12-8.14,19.35-27.96,58.98-58.26,116.91-85.96,176.04l-2.42,1.58-46.99,4.01-1.99,1.01c-2.52,10.57-3.67,21.4-5.98,32.02-47.5,218.41-260.34,357.74-480.7,312.67-129.2-26.42-238.66-117.75-290.8-238.19-4.6-1.58-34.35,3.74-35.91,2.4l-23.11-70.89c-2.34-.5-1.6.32-2.23,1.29-6.44,9.93-11.4,28.93-17.9,37.07-.84,1.05-1.46,1.76-2.8,2.2l-89.57,8.43H0s62.97-130.52,62.97-130.52c.28-2.02-.08-1.29-1.46-1.47-5.1-.68-9.48.96-14,1.04-1.54.03-1.76.22-1.48-1.49l38.43-79.58c23.22-4.07,47.12-4.74,70.6-7.4C186.22,169.39,312.5,40.83,470.81,8.46c191.89-39.24,381.43,61.03,457.66,239.72,1.76,4.12,7.65,22.29,9.02,23.98,1.97,2.43,6.59-.78,9.51-.02ZM858.15,280.3l61.34-5.16c1.9-.17,2.95-1.36,2.34-3.26C851.07,79.22,642.06-27.48,443.23,30.88c-124.15,36.44-224.72,135.43-262.94,259.06-1.24,4.01-10.69,34.96-9.29,36.2.72.63,2.54-.13,3.48-1.01,2.42-2.25,7.22-17.22,9.14-17.86l99.2-9.29c31.9-81.52,102.33-145.96,186.17-171.33,132.23-40.01,272.87,17.7,340.17,136.83,1.77,3.12,9.01,19.91,9.97,20.52,1.39.88,6.87-.97,9.35-.94,8.83.13,17.56,3.65,25.49,7.09.44-1.5,3.71-9.56,4.17-9.84ZM526,311.14c49.81-4.51,99.62-9.57,149.45-14.04,14.72.93,26.23,5.95,36.91,15.97,10.4-8.68,23.42-16.65,36.42-20.65,17.41-5.35,36.31-4.22,54.21-7.3-36.83-78.67-113.44-136.01-198.98-151.51-127.08-23.02-251.87,44.16-304,161.05-.28,2.02.08,1.29,1.46,1.47,4.66.62,8.39-.7,12.52-1,2.31-.17,4.69.16,7,0,1.5-.1,3.16-.91,5-1,2.57-.13,5.43-.13,8,0,.91.05,2.76-.48,3,.5-2.56,1.38-3.56,4.89-5,6.5-2.59,2.91-5.51,6.23-8,9-.1.12-1.22-.13-1.64.33-2.35,5.08-15.75,15.32-17.36,19.18-1.42,3.4,7.42.53,7.99.49,3.34-.25,6.96-.76,10-1,4.68-.37,9.31-.58,14-1,3.33-.3,6.8-.71,10-1,4.94-.45,10.05-.55,15-1,3.66-.33,7.33-.67,11-1,4.96-.45,10.09-1.55,15-2,3.97-.36,8.24-.66,12-1,5.22-.48,10.71-.51,16-1,4.32-.4,8.7-.61,13-1,5.96-.55,12.02-1.45,18-2,4.3-.39,8.7-.61,13-1,6.31-.58,12.69-1.42,19-2,4.63-.42,9.38-.58,14-1,7.63-.69,15.73-2.34,23-3,3.26-.3,6.74.29,10,0ZM1080.99,270.15c-28.91,1.84-57.89,4.76-86.75,7.75-15.96,16.75-30.81,34.51-46.81,51.23-1.21,1.26-2.23,5.73-3.47,1.57-4.37-14.62-4.1-32.74-8.54-47.61l-67.77,6.21c-1.94.61-8.53,15.77-9.67,18.84-1.38.28-1.27.2-2.07-.64-8.21-8.7-10.98-13.22-24.43-14.34-14.53-1.21-56.42,3.45-71.52,6.45-20.03,3.98-40,17.66-52.47,33.53-3.42-20.1-17.97-26.59-36.99-25.98-18.07.58-56.54,3.66-72.75,9.24-5.25,1.81-10.17,4.55-15.27,6.72l4.51-7.97-70.49,6-2.55,1.45-34.47,50.52,2.51-47.98-59.46,5.05-2.59,1.41-33.47,49.53,1.5-47.99-115.99,10.99,32.99-37.98-112.34,10.15c-2.51.79-8.98,18.59-10.32,18.89l-80.82,6.97-8.02,1.98-25.47,51.54c-.29,2.04.09,1.28,1.46,1.47,4.83.68,9.47-1.64,14.03-1.01,1.38.19,1.74-.54,1.47,1.48l-63.98,131.51,70.01-6.48c10.61-20.02,19.54-40.94,29.97-61.03.48-.93.55-2.38,2.01-2.48l30.98,92.59,67.03-5.6-10-34.99,41.51-3,2-1,54.62-112.38c2.21-4.36,7.47-1.64,11.35-3.65l-4.48,111.02,56.41-5.09,4.53-1.47,34.56-50.44-1.51,48,59.32-5.19,2.13-1.87,42.56-62.94c1.89-.25.6,1.87.3,2.79-2.42,7.34-7.24,13.49-8.2,21.81-1.61,13.95,4.13,26.24,17.62,31.17,13.01,4.75,50.35,0,65.77-1.78,28.75-3.33,50.5-13.33,69.01-35.99,2.04,22.24,20.79,26.92,39.99,25.99,45.08-2.21,91.53-5.34,117.7-47.3l38.48-77.73c1.42.2,5.05-.97,4.31,1.51l-54.98,113.52,70.04-6.45,18.97-39.53,9,45.99,43.5-46.98-15.51,34.97,69.26-6c22.41-45.9,45.38-91.62,67.59-137.64,3.94-8.17,10.47-19.7,13.36-27.64.45-1.25,1.08-2.28.78-3.71ZM620,488.14c-15.21,5.4-67.69,10.53-84.48,10-9.77-.31-21.64-4.58-29.05-10.97-2.08-1.8-8.92-11.29-9.97-11.02-2.56.66-15.57,25.44-20.21,27.8l-80.3,7.2v-15.5l-.5-.5c-3.95,4.92-7.67,15.32-13.83,17.17-26.52,2.46-53.1,5.64-79.68,6.83l3.99-82.99-12.85,24.64-7.11,16.76c37.92,142.95,181.35,231.35,326.98,200.11,102.35-21.96,186.75-103.13,209.99-205.51-7.7.04-15.36,1.35-23,2-2.41.2-5.53.91-7,1-3.63.22-7.36-.15-11,0l2.98-6.5c-1.04-.85-2.24,1.19-2.98,1.51-3.71,1.62-9.2,3.83-13,5-4.56,1.4-12.41,3.41-17,4-3.41.44-7.52-.38-11,0-5.27.57-10.71,1.51-16,2-3.64.34-7.37.7-11,1-5.97.49-12.16,1.65-18,2-4.74.29-7.68-.39-12-1-3.83-.54-12.84-1.63-16-3-.46-.2-6.87-5.11-8-6-1.76-1.39-4.84-6.09-6.32-5.88-8.15,6.24-16.36,11.57-25.68,15.88-2.31,1.07-6.18,3.35-8,4ZM941,461.14l-22.97,2.53-23.53,25.45-6.51-32.97c-3.09,2.01-3.28,9.78-6.68,10.8l-42.27,3.23c-19.48,95.21-91.96,177.2-182.79,210.7-148.13,54.64-310.61-16.83-371.72-160.78-2.99-7.05-6-14.43-7.54-21.97-2.34-.5-1.6.32-2.23,1.29-2.85,4.39-9.35,21.69-12.36,23.61l-2.96,1.04-31.44,2.07,10.99,34.99c-13.77.84-27.82,1.34-41.52,3-1.4.17-1.73-.53-1.46,1.47,75.51,168.34,256.93,262.11,439.17,224.22,137.67-28.62,252.45-133.33,293.08-267.92,2.25-7.44,15.47-58.05,12.73-60.77Z"/>
        <path class="cls-2" d="M941,461.14c2.74,2.72-10.49,53.33-12.73,60.77-40.63,134.6-155.41,239.3-293.08,267.92-182.23,37.89-363.66-55.88-439.17-224.22-.28-2,.06-1.3,1.46-1.47,13.7-1.66,27.74-2.16,41.52-3l-10.99-34.99,31.44-2.07,2.96-1.04c3.01-1.93,9.51-19.23,12.36-23.61.63-.97-.11-1.79,2.23-1.29,1.55,7.54,4.55,14.92,7.54,21.97,61.1,143.95,223.58,215.42,371.72,160.78,90.84-33.51,163.32-115.49,182.79-210.7l42.27-3.23c3.4-1.02,3.59-8.8,6.68-10.8l6.51,32.97,23.53-25.45,22.97-2.53ZM266.12,580.01c8.02,5.09,12.53-19.38-1.65-19.94-13.18-.52-9.79,13.61-11.68,20.37-1.21,4.33-8.1,5.43-8.57.05-.38-4.4,9.23-5.44,2.13-11.28-18.47,4.25-2.65,30.94,10.16,18.96,5.3-4.96,2.39-12.47,4.74-18.26,1.86-4.59,6.78-2.53,6.77.74,0,2.3-3.67,3.68-3.75,4.98-.02.24,1.65,4.26,1.85,4.38ZM854.01,569.14c.99-5.48-6.52-9.79-11.27-8.83s-9.77,11.53-10.7,15.78c5.06.83,29.2,17.89,31.89,15.98,2.84-8.37,11.58-14.5,1.57-21.93-3.8-2.82-7.55-4.59-11.48-1.01ZM814.02,602.11c11.63,4.62,28.98,28.75,38.15,8.71,2.26-4.94,2.25-7.48-1.67-11.67-1.56-1.66-21.64-15.83-23.03-16.05-1.47-.24-4.94,5.36-4.47,6.03,4.42,2.36,23.33,13.96,23.87,17.75s-2.94,5.51-6.38,4.32c-5.18-1.8-18.86-14.64-22.17-14.95-1.76-.17-4.85,5.09-4.31,5.87ZM282.83,584.32c-1.15-.67-2.64-.11-3.78.37-7.74,3.23-17.49,14.15-25.87,17.62-2.16,3.67,8.44,12.49,8.84,16.83,9.94-2.92-.17-7.86-.97-13.91l8.93-5.07c1.76,3.84,4.5,11.57,8.97,6.39.91-3.1-6.01-8.88-4.95-10.38,1.96.33,5.89-3.93,6.5-3.92,1.54.01,4.6,7.44,6.49,8.46,2.56,1.39,5.62-.77,4.11-4.1-.37-.81-7.63-11.9-8.27-12.28ZM295.73,608.36c-4.24.35-20.36,13.1-21.98,17.04-3.09,7.53,3.4,17.44,11.73,16.81,4.67-.35,20.03-13.14,21.75-17.32,2.98-7.25-4.37-17.13-11.5-16.54ZM801.64,617.22c-1.89,1.39-4.64,3.3-3.17,5.9l24.5,20.63c1.46.69,2.35.43,3.58-.52.68-.52,9.13-11.06,9.33-11.79.51-1.91-1.24-4.07-3.24-4.21l-8.14,8.87-22.86-18.87ZM316.7,630.25c-2.51.66-20.69,20.29-21.29,23.84-1.11,6.62,8.6,15.37,15.09,13.12,2.97-1.03,21.84-18.67,22.39-20.77.51-1.95-2.59-5.51-4.26-5.22-1.91.33-15.01,15.99-18.7,18.38-5.2,3.36-8.78-1.28-6.41-6.44,1.66-3.61,17.97-16.21,18.4-18.65.29-1.66-3.27-4.77-5.22-4.26ZM788.73,631.31c-4.13.85-8.83,7.07-8.83,11.33,0,6.54,15.04,22.06,21.6,22.56,9.94.76,17.17-12.89,8.05-19.13-3-2.05-6.83,1.5-6.49,3.44.29,1.67,6.05,3.96,3.5,7.7-4.64,6.42-27.61-18.43-17.04-19.15,3.1-.21,6.47,5.52,9.42-2.3-2.31-2.93-6.48-5.22-10.21-4.45ZM335.99,686.16c-.54-.78-9.09-4.99-8.95-7.43,2.52-4.22,18.95-20.29,17.87-23.93-.31-1.04-2.58-2.42-3.6-2.5-2.05-.17-23.29,25.43-23.34,27.32,2.76,1.1,12.91,11.35,14.54,11.34.66,0,4.27-3.66,3.48-4.8ZM778.98,683.15c-2.54-1.77-8.25,6.71-11.31,5.91s-16.01-23.41-19.04-22.84c-.27.05-4.47,2.72-4.63,2.94-1.07,1.45,19.57,25.55,21.57,28.96,2.93-1.7,14.21-8.84,14.37-11.44.02-.4-.81-3.43-.96-3.53ZM380.91,697.09c-1.13.78-6.84-3.38-7.9-4.52-.34-1.47,6.02-8.32,5.96-10.95-.05-2.45-3.06-4.13-5.33-3.38-1.63.53-17.98,27.55-17.56,29.21.38,1.51,4.94,4.39,5.89,3.69,1.69-3.69,5.57-14.18,9.97-12.5,10.75,4.12-1.65,10.44-1.98,16.08-.21,3.61,3.76,5.82,6.47,2.36,2.47-3.15,15.46-23.79,16.36-26.69.79-2.52-3.47-4.69-5.17-4.21-1.58.45-5.79,8.85-6.73,10.89ZM743.08,706.09l-15.06-24.51c-1.64-1.06-7.81,3.02-5.26,5.26,2.91,3.04,16.19,26.73,17.89,27.23,2.49.73,16.47-8.66,16.23-10.23-.13-.86-2.07-2.2-1.92-3.66l-11.87,5.92ZM731.94,721.09l-.47-2.92-21.48-25.59c-1.19-.76-7.98,2.61-8.57,3.56-.94,1.51,7.08,33.53,8.51,34.59,1.05.78,2.03.33,3.1,0,6.61-2.08.13-10.37.98-11.52.2-.27,5.6-2.2,6.47-2.12,3.64.35,3.81,9.51,11.46,4.01ZM417.99,701.16c-3.88-.19-14.13-8.42-17.01-6.58-1.47.94-15.94,30.06-14.92,31.48,3.18.28,14.96,8.38,16.88,7.05.21-.14,1.4-4.32.99-4.89-.31-.44-8.46-3.55-9.94-4.09l4.01-9.99c3.03-.15,8.44,5.41,11.04,3.57,5.94-4.21-6.88-7.02-7.13-8.2s1.67-6.9,2.21-7.23c4.08-2.52,12.76,9.75,13.87-1.12ZM434.99,747.14c-.82-4.49,2.46-8.53,2.95-12.6.29-2.38-.78-4.91-.62-5.96.19-1.24,8.33-3.88,6.67-12.89-1.04-5.68-14.1-8.78-18.94-10.52l-12.13,33.34c8.77,7.26,8.37-9.32,11.17-11.28,1.68-1.18,6.59,1.93,6.95,4.48.46,3.28-4.85,11.19-2.94,13.36.24.27,5.74,1.59,6.9,2.08ZM690.99,719.12c-.33-.44,2.56-5.12-.99-10.48-5.29-7.98-14.18.04-21,1.51l13.09,32.9c10.21-2.25,20.43-4.52,16.14-17.64-1.86-5.68-6.65-5.53-7.23-6.29ZM661.99,713.14l-17.95,5.04,9.97,34.96c2.34-.98,17.34-4.34,17.96-5.04.46-.53-.73-5.79-.98-5.97-.93-.66-9.95,4.3-11.89,2.91-.37-.26-2.75-7.5-2.98-8.54-.46-2.08.18-1.04,1.34-1.38,1.38-.4,8.16-1.75,8.45-2.07.58-.67.25-4.65-.87-5.47-1.68-1.24-8.46,3.25-11.03,2.56.55-1.79-2.55-7.27-2.01-7.99.61-.81,10.62-2.59,11.01-3.02.56-.62-1.27-4.64-1.01-6ZM472.69,721.45c-2.95-3.19-10.71-4.13-14.74-2.86-6.66,2.1-11.15,23.53-9.73,29.84,1.35,6,11.89,8.24,16.77,6.19,6.27-2.64,12.91-27.55,7.71-33.17ZM636.9,732.04c.75-14.52-22.73-12.02-20.86,1.52,1.42,10.31,17.21,9.65,18.54,14.5,1.53,5.57-4.37,7.71-6.66,4.66-1.8-2.4.25-5.67-4.32-5.55-3.87.11-4.13,1.84-3.37,5.22,2.78,12.29,23.23,9.04,21.69-4.64-1.34-11.9-20.85-9.67-19-17.99,7.04-5.49,6.19,7.12,13.97,2.28ZM503.99,727.15c-.63-.62-15.08-1.6-17.42-2.89l-1.09.85-6.3,32.77c-.24.8.12,1.37.78,1.78.78.48,17.34,4.09,18.02,3.48.23-.2.87-4.96,1.02-5.99l-12.01-2.59,2.04-9.39,10.96,1.98c-.14-1.6.77-3.06.95-4.59.26-2.2-.17-1.06-1.41-1.44-8.28-2.56-10.41,2.09-8.53-9.98l12.99,2c-.21-1.25.35-5.64,0-5.99ZM613,763.14l-11.09-33.41c-.82-2.79-8.99-1.24-9.73-.4-2,2.3-2.66,31.47-4.18,36.81,11.35-.91,6.23-3.39,8.13-9.36.69-2.17,7.04-2.15,7.76-1.53,2.07,1.78-1.12,10.88,9.1,7.89ZM530.98,742.15c5.67-15.01-20.13-18.8-20.63-4.35-.35,9.99,13.91,11.33,12.72,20.87-.41,3.33-6.01,2.52-6.92-.19-1.83-5.46,3.64-7.22-7.17-6.34-4.91,21.1,29.4,17.24,20.56-1.05-2.42-5.01-9.46-7.49-11.03-10.96-2.1-4.67,1.31-7.38,4.78-5.07,2.75,1.83-.65,7.65,7.67,7.09ZM572.5,731.14c-4.18-.9-10.96.65-15.5,0l.99,36.01c11.87.76,24.31.66,20.51-15.04-.79-3.27-3.56-4.19-3.55-4.49.06-1.44,2.21-3.4,2.65-5.44.77-3.54-1.27-10.22-5.12-11.05Z"/>
        <path class="cls-4" d="M314,295.14c-4.13.3-7.85,1.62-12.52,1-1.38-.18-1.74.55-1.46-1.47,52.13-116.9,176.93-184.08,304-161.05,85.54,15.5,162.15,72.84,198.98,151.51-17.9,3.07-36.8,1.95-54.21,7.3-13,3.99-26.02,11.96-36.42,20.65-10.69-10.01-22.2-15.04-36.91-15.97-49.83,4.47-99.64,9.53-149.45,14.04,2.76-4.99,9.43-38.28,7.83-40.84-7.51-1.43-27.62-16.2-33.33-16.21-4.37,0-9.25,4.56-7.01,9.06,1.88,3.77,26.36,15.09,26.58,16.64-.31,8.49-5.47,19.21-5.85,27.13-.09,1.86.1,3.14,1.77,4.22-7.27.66-15.37,2.31-23,3l6.9-28.33c-5.26-2.28-25.63-19.58-29.22-19.42-4.98.22-9.57,4.41-7.15,9.73,1.92,4.23,21.03,15.35,21.53,18.54l-6.06,20.48c-6.31.58-12.69,1.42-19,2-.05-3.63,6.69-13.66,5.56-15.97l-20.49-22.59c-4.21-4.06-12.75.49-11.91,5.84.72,4.63,17.06,18.77,17.69,21.43.82,3.43-4.23,8.53-3.85,12.3-5.98.55-12.04,1.45-18,2,.4-3.57,3.5-5.28,2.59-9-.33-1.35-12.63-21.96-14.15-23.94-4.89-6.38-12.06-1.05-11.43,5.34.55,5.53,12.15,18.5,12.78,22.27.29,1.72-2.28,4.52-2.79,6.33-5.29.49-10.78.52-16,1,1.42-2.08,1.06-3.74.53-6-1.8-7.63-8.04-17.14-9.62-25.4-2.98-4.13-9.58.55-9.87,4.95-.2,2.98,2.64,9.96,3.69,13.22,1.43,4.46,5.64,9.81,3.27,14.23-4.91.45-10.04,1.55-15,2,1.32-10.1-3.63-20.95-4.23-31.26-1.34-3.75-4.83-3.14-7.21-.68-6.14,6.36,3.96,24.81.44,32.94-4.95.45-10.06.55-15,1,.91-1.64,2.6-2.5,2.98-4.52,1.74-9.17-1.36-22.01-.98-31.48-11.4-1.84-7.95,16.73-8.04,24.55-.02,1.66.91,3.5.76,4.84-.29,2.54-4.14,4.85-4.72,7.61-4.69.42-9.32.63-14,1,1.46-2.72,7.05-7.05,7.79-9.71,1.29-4.59.79-13.27,1.21-18.29,1.43-1.62,2.43-5.13,5-6.5-.23-.97-2.09-.45-3-.5,1.16-9.4-7.2-6.94-8,0-1.84.09-3.5.9-5,1-.57-3.26.99-6.36,1.04-9.48s-4.13-1.49-5.49.53c-1.46,2.17-1.61,6.39-2.55,8.95ZM632.5,153.14c-3.25,2.54-.86,5.09,2.22,5.78,7.64,1.71,21.83-.35,28.33,1.67,5.7,1.77,14.66,14.66,20.46,14.63,3.99-.02,4.2-2.3,1.9-5-3.03-3.57-20.79-17.07-24.92-17.07h-28ZM623.09,167.23c-.51.77-.15,3.01.39,3.92,2.18,3.69,26.95,2.38,32.8,4.2s13.96,19.58,20.99,17.64c.93-.26,2.4-1.57,2.58-2.5.6-3.21-17.39-18.95-20.56-22.15-5.2.5-34.25-4.04-36.2-1.11ZM613.7,180.35c-2.47.74-3.96,4.39-1.7,6.3,3.91,3.29,26.67,2.23,32.97,5.02,4.45,1.97,10.28,16.18,14.05,18.95,4.51,3.32,10.87,1.57,7.82-4.81-1.15-2.4-14.47-20.51-15.86-21.15-2.8-1.28-28.1-4.36-32.51-4.53-1.59-.06-3.21-.26-4.77.21ZM640.25,230.89c2.75,2.64,9.68,1.99,9.81-3.21.08-3.19-10.1-23.78-12.5-25.59-1.85-1.4-31.1-6.72-35.09-6.94-8.73-.49-12.16,6.04-2.5,8.53,9.1,2.34,19.76,2.77,29.02,4.98,4.05,2.27,8.35,19.43,11.26,22.23ZM618.77,219.38l-37.32-9.27c-4.18-.46-9.86,3.44-6.54,7.63s28.15,5.66,33.06,8.94c3.5,2.34,5.1,20.51,7.96,24.79,1.99,2.98,11.11,3.46,11.16-3.8.06-7.9-7.05-20.11-8.32-28.28ZM550.26,233.88c3.71,3.77,25.83,7.88,31.74,10.76,3.73,3.17,1.61,22.15,3.52,26.48,2.16,4.89,11.62,4.49,12.53-2.43.5-3.81-2.06-30.36-4.04-32.07l-36.6-11.43c-4.13-.69-10.92,4.86-7.15,8.68ZM563.7,291.86c2.15-2.67,3.46-35.33,1.84-37.75l-34.3-13.78c-6.43-.56-13.31,5.36-6.19,10.27l27.83,11.66c2.2,2.53-3.24,24.98-1.22,29.66,1.48,3.42,9.75,2.77,12.04-.06Z"/>
        <path class="cls-3" d="M1080.99,270.15c.29,1.43-.33,2.46-.78,3.71-2.89,7.94-9.41,19.48-13.36,27.64-22.22,46.01-45.18,91.73-67.59,137.64l-69.26,6,15.51-34.97-43.5,46.98-9-45.99-18.97,39.53-70.04,6.45,54.98-113.52c.74-2.48-2.89-1.31-4.31-1.51l-38.48,77.73c-26.18,41.95-72.62,45.09-117.7,47.3-19.2.94-37.95-3.74-39.99-25.99-18.51,22.66-40.26,32.66-69.01,35.99-15.42,1.78-52.76,6.53-65.77,1.78-13.49-4.93-19.23-17.21-17.62-31.17.96-8.32,5.78-14.46,8.2-21.81.3-.92,1.59-3.04-.3-2.79l-42.56,62.94-2.13,1.87-59.32,5.19,1.51-48-34.56,50.44-4.53,1.47-56.41,5.09,4.48-111.02c-3.88,2.01-9.14-.71-11.35,3.65l-54.62,112.38-2,1-41.51,3,10,34.99-67.03,5.6-30.98-92.59c-1.47.1-1.53,1.55-2.01,2.48-10.43,20.1-19.36,41.02-29.97,61.03l-70.01,6.48,63.98-131.51c.28-2.03-.09-1.29-1.47-1.48-4.57-.63-9.2,1.69-14.03,1.01-1.37-.19-1.74.57-1.46-1.47l25.47-51.54,8.02-1.98,80.82-6.97c1.34-.3,7.81-18.1,10.32-18.89l112.34-10.15-32.99,37.98,115.99-10.99-1.5,47.99,33.47-49.53,2.59-1.41,59.46-5.05-2.51,47.98,34.47-50.52,2.55-1.45,70.49-6-4.51,7.97c5.1-2.17,10.01-4.91,15.27-6.72,16.21-5.59,54.68-8.67,72.75-9.24,19.02-.61,33.56,5.89,36.99,25.98,12.47-15.87,32.44-29.55,52.47-33.53,15.1-3,56.99-7.66,71.52-6.45,13.45,1.12,16.22,5.65,24.43,14.34.79.84.68.92,2.07.64,1.14-3.07,7.74-18.23,9.67-18.84l67.77-6.21c4.44,14.87,4.17,32.98,8.54,47.61,1.24,4.16,2.26-.31,3.47-1.57,16-16.72,30.85-34.48,46.81-51.23,28.86-2.98,57.83-5.9,86.75-7.75ZM939,351.14l-10.01-59c-1.27-.45-1.88.98-1.99,1-2.9.4-6.41-.23-9.49,0-14.59,1.14-29.15,3.66-43.81,4.18-3.08.9-6.05,11.59-7.69,14.81-.14.27-1.56.99-2.19,2.26-3.21,6.4-5.97,13.17-8.8,19.74l18.99-1.99-55,114c-2.98,1.56,3.84,1.05,4.49.99,14.84-1.37,29.66-3.3,44.52-4.48,10.55-18.31,18.2-38.32,28.17-56.88.75-1.4.39-3.16,2.82-2.63.26,1.53-.19,3.51.13,5.34,2.75,15.99,6.01,31.91,7.87,48.05-.15.98,1.4.78,2,.61,1.38-.38,4.3-3.72,5.51-4.99,22.45-23.3,42.1-49.62,65.49-72.01-10.95,25.02-24.27,48.88-35,74-.02.05-1.92.47-.5,1,16.6-.93,33.78-1.55,50.01-4.99,20.72-45.03,44.47-88.73,65.35-133.65,1.88-4.04,3.91-8.29,5.61-12.39.33-.79,2.05-3.74.53-3.97-22.66,1.7-45.51,3.39-67.95,6.55-19.51,21.62-39.5,42.96-59.05,64.45ZM672,451.14c.13.17-.28,1.2.68,2.04,3.59,3.15,12.03,5.91,16.81,6.03,45.12-4.86,92.93-.1,119.68-44.4,15.9-26.33,28.33-59.53,41.59-87.41.89-7.55.83-11.4-3.76-17.26-7.31-9.32-16.48-8.49-27.49-7.99-15.66.71-37.41,2.75-52.89,5.11-23.79,3.62-47.78,20.59-59.44,41.56-11.28,20.29-28,53.34-36.36,74.64-4.12,10.51-6.27,18.29,1.18,27.68ZM518,464.14c3.97,5.96,12.48,9,19.51,9.08,14.87.18,41.63-3.04,56.98-5.09,26.25-3.51,48.44-18.27,62.68-40.32,10.18-25.92,30.36-54.15,39.02-79.98,2.82-8.42,4.18-17.61-2.19-24.69-6.96-7.75-16.85-7.41-26.49-6.99-16.02.7-38.06,2.72-53.89,5.11-23.45,3.54-47.17,20.73-58.79,41.21-11.57,20.4-28.48,54.35-37.01,75.99-3.26,8.27-5.01,17.88.18,25.68ZM189,342.14c-1.08,2.17-10.07,18.01-9,18.99l18-1.99-70,77.5-1.99,4.09,33.09,101.31c1.25,1.08,21.31-1.6,24.9-1.9,8.65-.71,17.37-1.03,26-2.01l-10.99-33.99,47.48-4.02,2.98-2.02,72.43-148.58-1.9-1.39-45.48,4.02-2.57,1.43-72.95,149.55-22.49-66.03,106.49-118.97-7.49-.99-76.82,7.18c-3.21.94-7.94,14.31-9.69,17.81ZM567,326.14c-16.03.76-32.15,1.88-47.97,4.53-16.32,24.17-32.66,48.35-49.03,72.47-.05-22.95,1.82-46.06,2.99-69-.66.03-1.34-.05-1.99,0-14.97,1.27-29.98,3.38-45,4.5-16.57,24.01-32.64,48.37-49,72.5l1-68-48.34,4.16c-1.6.52-6.57,11.64-7.88,14.17-.68,1.32-.49,3.11-.78,3.68-.14.27-1.57.97-2.2,2.26-.95,1.94-8.47,16.1-7.8,16.74l19.99-1.99-6,109c.58,1.69,6.77,1.1,8.49.99,10.14-.64,22.85-1.77,32.9-3.1,1.78-.24,4.76-.81,6.16-1.84l49.45-72.05c-1.11,22.65-2.2,45.34-3,68,.06,1.49,1.33,1.02,2.4.92,14.02-1.24,27.97-3.5,42.08-3.94l2.6-1.4,100.93-149.07,2-4c-.9-1.67-1.91.49-2.01.49ZM167,345.14l-67.33,5.96c-1.08.24-7.52,15.73-8.67,18.04-.88,1.79-9.91,17.31-9,17.99l18-.99-64,132c.06,1.53,2.29,1.1,3.49,1,14.65-1.2,29.26-3.54,44-4.01l2.57-1.43,79.81-163.19,1.14-5.36ZM258.5,359.14v1c.65-.33.65-.67,0-1ZM257.99,361.15l-71.26,77.28-.56,2.97,12.83,38.74,58.99-119ZM176,370.15c-3.21.35-7.95-.99-10.58.91-1.44,1.05-10.27,19.11-9.42,20.07,2.44-.07,4.45-2.83,6.02-4.47,4.78-4.97,9.65-11.1,13.97-16.52ZM155.5,392.14v1c.65-.33.65-.67,0-1Z"/>
        <path class="cls-2" d="M516,311.14c-1.68-1.07-1.86-2.35-1.77-4.22.38-7.93,5.53-18.64,5.85-27.13-.22-1.55-24.71-12.88-26.58-16.64-2.24-4.5,2.64-9.07,7.01-9.06,5.71,0,25.82,14.78,33.33,16.21,1.6,2.56-5.07,35.85-7.83,40.84-3.26.29-6.74-.3-10,0Z"/>
        <path class="cls-2" d="M628,484.14c2.02,2.37,4.18,2.58,3.94,6.4-.36,5.78-10.07,23.11-8.8,27.87,3.82,5.77,18.78,13.2,21.33,18.74s-1.68,9.13-6.99,9.09c-4-.03-10.37-6.4-14.17-8.92-5.08-3.37-10.06-6.9-15.4-9.82l12.08-39.36c1.82-.65,5.69-2.93,8-4Z"/>
        <path class="cls-2" d="M668,480.14l-10.79,26.36c2.63,5,18.03,18.43,17.81,23.04-.23,4.78-6.79,8.21-11.03,6.1l-21.01-25.03c-.25-2.39,11.7-29.18,13.81-33.18.78-1.48,1.62-2.62,3.2-3.3,1.13.89,7.54,5.8,8,6Z"/>
        <path class="cls-2" d="M493,314.14c-4.62.42-9.37.58-14,1l6.06-20.48c-.5-3.19-19.61-14.31-21.53-18.54-2.42-5.33,2.17-9.51,7.15-9.73,3.59-.16,23.96,17.14,29.22,19.42l-6.9,28.33Z"/>
        <path class="cls-2" d="M460,317.14c-4.3.39-8.7.61-13,1-.38-3.77,4.67-8.87,3.85-12.3-.63-2.66-16.97-16.79-17.69-21.43-.83-5.35,7.7-9.9,11.91-5.84l20.49,22.59c1.14,2.31-5.6,12.34-5.56,15.97Z"/>
        <path class="cls-2" d="M696,484.14c-.56,5.03-6.7,9.37-6.01,14.42s21,26.3,7.29,29.37c-1.94.43-4.3.71-5.8-.78-1.63-7.02-14.14-20.2-15.31-25.76-.85-4.02,7.99-13.42,7.83-18.25,4.32.61,7.26,1.29,12,1Z"/>
        <path class="cls-2" d="M725,481.14c-.06,3.91-5.94,8.13-5.93,11.49,0,2.39,5.13,12.98,6.19,16.75,1.15,4.07,3.26,8.78-.21,12.3-3.1,3.14-6.09,3.08-8.25-.85-1.09-1.98-9.74-24.89-9.81-26.29-.16-3.06,5.48-9.38,7.01-12.41,3.63-.3,7.36-.66,11-1Z"/>
        <path class="cls-2" d="M429,320.14c-4.3.39-8.68.6-13,1,.51-1.81,3.08-4.61,2.79-6.33-.63-3.77-12.23-16.74-12.78-22.27-.63-6.38,6.53-11.72,11.43-5.34,1.52,1.98,13.82,22.59,14.15,23.94.92,3.72-2.18,5.43-2.59,9Z"/>
        <path class="cls-2" d="M782,470.14c-.87,6.67-13.31,15.6-14.79,20.71-1.92,6.68,1.97,23.51-1.32,28.68-1.62,2.56-6.4,4.17-6.89.1,1.04-9.04-2.66-20.21-.98-28.97.82-4.26,9.79-10.66,10.98-15.52,3.8-1.17,9.29-3.38,13-5Z"/>
        <path class="cls-2" d="M752,479.14c-.94,3.49-6.6,8.47-7,11.57-.94,7.27,7.73,22.61,1.45,29.37-2.53,2.71-5.63,3.07-6.98-.91-.93-2.73-5.2-25.24-5.18-27.74.04-4.12,6.49-7.88,6.71-12.29,3.48-.38,7.59.44,11,0Z"/>
        <path class="cls-2" d="M400,322.14c-3.76.34-8.03.64-12,1,2.37-4.42-1.84-9.77-3.27-14.23-1.05-3.26-3.89-10.24-3.69-13.22.29-4.4,6.89-9.08,9.87-4.95,1.58,8.26,7.83,17.77,9.62,25.4.53,2.26.89,3.93-.53,6Z"/>
        <path class="cls-2" d="M800,474.14c.23,8.34-13.58,15.57-15.55,21.95-1.78,5.77.78,27.44-6.96,29.04-.73.15-2.48.44-2.5-.55l2.23-30.73,15.79-18.71c1.47-.09,4.59-.8,7-1Z"/>
        <path class="cls-2" d="M373,325.14c-3.67.33-7.34.67-11,1,3.52-8.13-6.58-26.58-.44-32.94,2.37-2.46,5.87-3.07,7.21.68.6,10.31,5.55,21.16,4.23,31.26Z"/>
        <path class="cls-2" d="M337,328.14c.58-2.76,4.43-5.07,4.72-7.61.15-1.33-.78-3.18-.76-4.84.08-7.83-3.36-26.39,8.04-24.55-.37,9.47,2.72,22.31.98,31.48-.38,2.02-2.07,2.88-2.98,4.52-3.2.29-6.67.7-10,1Z"/>
        <path class="cls-2" d="M323,329.14c-3.04.24-6.66.75-10,1,4.56-6.55,13.03-10.92,11-20,2.49-2.77,5.41-6.09,8-9-.42,5.02.08,13.7-1.21,18.29-.74,2.66-6.33,6.99-7.79,9.71Z"/>
        <path class="cls-4" d="M324,310.14c2.03,9.08-6.44,13.45-11,20-.58.04-9.41,2.92-7.99-.49,1.61-3.86,15.01-14.1,17.36-19.18.42-.47,1.53-.22,1.64-.33Z"/>
        <path class="cls-2" d="M314,295.14c.94-2.57,1.08-6.79,2.55-8.95,1.36-2.02,5.54-3.69,5.49-.53s-1.61,6.22-1.04,9.48c-2.31.16-4.69-.17-7,0Z"/>
        <path class="cls-2" d="M334,294.14c-2.57-.13-5.43-.13-8,0,.8-6.94,9.16-9.4,8,0Z"/>
        <path class="cls-4" d="M800,474.14c7.64-.65,15.3-1.96,23-2-23.24,102.38-107.64,183.55-209.99,205.51-145.63,31.24-289.06-57.16-326.98-200.11l7.11-16.76,12.85-24.64-3.99,82.99c26.58-1.19,53.15-4.37,79.68-6.83,6.16-1.85,9.88-12.25,13.83-17.17l.5.5v15.5l80.3-7.2c4.64-2.36,17.66-27.14,20.21-27.8,1.04-.27,7.89,9.22,9.97,11.02,7.4,6.4,19.28,10.67,29.05,10.97,16.79.53,69.27-4.6,84.48-10l-12.08,39.36c5.34,2.92,10.32,6.46,15.4,9.82,3.8,2.52,10.17,8.89,14.17,8.92,5.31.04,9.52-3.59,6.99-9.09s-17.51-12.97-21.33-18.74c-1.27-4.76,8.43-22.09,8.8-27.87.24-3.83-1.92-4.03-3.94-6.4,9.33-4.31,17.53-9.64,25.68-15.88,1.47-.22,4.56,4.48,6.32,5.88-1.58.67-2.42,1.82-3.2,3.3-2.11,4-14.07,30.79-13.81,33.18l21.01,25.03c4.24,2.11,10.81-1.32,11.03-6.1.22-4.61-15.18-18.04-17.81-23.04l10.79-26.36c3.16,1.37,12.17,2.46,16,3,.16,4.83-8.68,14.23-7.83,18.25,1.17,5.56,13.68,18.74,15.31,25.76,1.49,1.5,3.86,1.22,5.8.78,13.71-3.07-6.61-24.41-7.29-29.37s5.45-9.39,6.01-14.42c5.84-.35,12.03-1.51,18-2-1.53,3.03-7.18,9.35-7.01,12.41.07,1.4,8.72,24.31,9.81,26.29,2.16,3.92,5.15,3.99,8.25.85,3.48-3.53,1.36-8.23.21-12.3-1.06-3.77-6.19-14.36-6.19-16.75,0-3.37,5.88-7.58,5.93-11.49,5.29-.49,10.73-1.43,16-2-.23,4.41-6.68,8.17-6.71,12.29-.02,2.5,4.25,25.01,5.18,27.74,1.35,3.97,4.45,3.62,6.98.91,6.29-6.76-2.39-22.1-1.45-29.37.4-3.11,6.07-8.08,7-11.57,4.59-.59,12.44-2.6,17-4-1.19,4.86-10.16,11.26-10.98,15.52-1.68,8.76,2.02,19.93.98,28.97.49,4.08,5.27,2.46,6.89-.1,3.29-5.18-.61-22,1.32-28.68,1.47-5.12,13.91-14.04,14.79-20.71.74-.32,1.94-2.36,2.98-1.51l-2.98,6.5c3.64-.14,7.37.23,11,0l-15.79,18.71-2.23,30.73c.02.99,1.77.7,2.5.55,7.75-1.6,5.18-23.27,6.96-29.04,1.97-6.38,15.78-13.6,15.55-21.95ZM811.99,481.15c-1.85-.27-2.95.01-4.55.95-1.23.72-14.63,14.53-15.23,15.77-.58,3.94-7.36,30.16-6.22,31.27.33.32,3.13.03,4-.49,4.41-2.61,5.45-22.1,7.76-27.24,2.93-6.53,15.88-11.18,14.23-20.26ZM588.07,534.05c-1.2-1.66,6.09-24.37,5.98-28.45-.19-7.16-11.13-7.36-13.99,1.1-2.21,6.54-5.57,25.16-5.99,32.11-.07,1.24-.33,2.17.4,3.35,1.55,2.49,27.98,13.3,32.25,16.8,4.73.53,12.01-5.55,7.54-9.86-5.56-5.36-19.09-11.17-26.19-15.05ZM542.13,559.01l33.43,13.08c4.82,1.06,12.3-1.35,10.3-7.28-1.06-3.14-26.08-12.06-30.41-14.62-1.92-2.85,1.93-22.66,1.54-27.5-1.86-6.94-12.45-4.84-13.79,1.17-.49,11.74-1.91,23.38-1.08,35.15ZM525.17,567.97c-1.84-7.72-1.06-16.65-2.23-24.26-.93-6.02-8.05-6.82-11.53-2.65-4.64,5.57,2.3,27.2,1.73,34.96l35.46,11.05c4.17,1.49,12.41-1.85,9.96-6.91-1.83-3.78-28.21-9.76-33.38-12.19ZM499.22,585.91c-3.08-5.57-4.07-24.68-10.21-26.36-3.45-.95-7.88,1.1-8.1,5.09-.16,2.99,7.3,27.43,9.1,28.99,4.18,3.61,30.08,6.32,36.75,9.27,4.02.78,9.44-3.72,7.06-7.6-1.5-2.45-30.07-7.16-34.61-9.38ZM478.24,603.89c-2.68-2.53-6.84-16.26-9.37-20.12-3.23-4.93-11.91-4.81-10.84,2.79.36,2.53,11.33,24.05,13,25.04l35.52,6.57c6.31.03,11.26-5.41,3.26-8.35-5.59-2.06-29.33-3.81-31.57-5.93ZM442.71,601.34c-1.03.32-2.36,1.46-2.61,2.5-.78,3.24,14.58,20.64,16.9,24.8l34.63,4.43c3.18.03,6.39-1.76,5.26-5.27-1.45-4.53-28.62-4.49-33.9-6.14-6.03-4.68-11.55-22.99-20.27-20.32ZM484.9,646.05c3.29-4.88-6.3-6.61-9.42-6.89-6.12-.54-17.25.39-22.78-1.22-3.69-1.07-13.71-15.43-17.72-17.28s-7.11-.12-5.46,4.44c.89,2.45,17.05,18.86,19.42,19.6,10.14-.02,20.59,2.14,30.6,2.49,1.09.04,4.99-.58,5.36-1.13ZM476.99,659.13c.53-.78-.2-2.7-.91-3.57-4.11-5.1-23.81-.74-30.37-2.63-4.42-1.27-19.42-19.12-23.72-14.78-.12,1.41-.1,2.65.52,3.97.87,1.83,19.2,16.26,21.22,16.78,2.45.63,13.36,1.19,16.72,1.29,2.64.07,15.63.29,16.54-1.05Z"/>
        <path class="cls-4" d="M434.99,747.14c-1.16-.49-6.66-1.81-6.9-2.08-1.91-2.16,3.4-10.08,2.94-13.36-.35-2.55-5.26-5.66-6.95-4.48-2.79,1.96-2.4,18.54-11.17,11.28l12.13-33.34c4.84,1.74,17.9,4.84,18.94,10.52,1.66,9.01-6.48,11.65-6.67,12.89-.16,1.05.91,3.58.62,5.96-.49,4.07-3.77,8.11-2.95,12.6ZM426,722.13c18.05,5.69,9.33-13.32,3.09-8.9-.38.27-2.52,7.51-3.09,8.9Z"/>
        <path class="cls-4" d="M854.01,569.14c3.93-3.59,7.68-1.82,11.48,1.01,10.01,7.43,1.27,13.56-1.57,21.93-2.69,1.91-26.83-15.15-31.89-15.98.93-4.25,6.1-14.85,10.7-15.78s12.26,3.34,11.27,8.83ZM848.69,569.45c-3.13-3.67-7.34-2.34-8.69,2.16.18.72,6.38,4.72,7.39,4.47,2.22-.53,2.99-4.65,1.29-6.63ZM862.68,576.44c-4.89-5.86-11.82.54-9.62,3.63.27.38,7.91,4.16,8.36,4.07,2.3-.5,3.11-5.48,1.26-7.69Z"/>
        <path class="cls-4" d="M572.5,731.14c3.84.82,5.89,7.51,5.12,11.05-.44,2.03-2.6,3.99-2.65,5.44-.01.3,2.76,1.22,3.55,4.49,3.8,15.7-8.64,15.8-20.51,15.04l-.99-36.01c4.54.65,11.32-.9,15.5,0ZM569.74,744.89c3.77-3.28.09-10.87-5.74-8.75-.88,4.24-.09,13.82,5.74,8.75ZM570.85,751.28c-1.2-.75-5.11.19-6.85-.13l1,10.99c.22.26,6.03-1.21,6.55-1.94,1.01-1.42.38-8.25-.7-8.92Z"/>
        <path class="cls-4" d="M690.99,719.12c.58.76,5.38.61,7.23,6.29,4.29,13.12-5.92,15.39-16.14,17.64l-13.09-32.9c6.82-1.48,15.71-9.5,21-1.51,3.55,5.36.66,10.04.99,10.48ZM680.01,721.14c7.55,1.36,7.18-8.69,2.29-9.86-7.13-1.7-2.99,6.4-2.29,9.86ZM686.12,735.01c8.52,5.47,7.7-17.48-3.09-8.31.82,1.3,2.72,8.07,3.09,8.31Z"/>
        <path class="cls-4" d="M472.69,721.45c5.2,5.61-1.44,30.53-7.71,33.17-4.88,2.05-15.42-.19-16.77-6.19-1.42-6.31,3.07-27.74,9.73-29.84,4.03-1.27,11.79-.33,14.74,2.86ZM461.79,748.92c1.32-.75,12.43-28.42-.09-24.62-3.55,1.08-8.47,20.78-6.27,23.9.87,1.23,5.14,1.41,6.36.71Z"/>
        <path class="cls-4" d="M295.73,608.36c7.13-.59,14.48,9.29,11.5,16.54-1.72,4.18-17.08,16.96-21.75,17.32-8.33.63-14.82-9.28-11.73-16.81,1.62-3.94,17.74-16.69,21.98-17.04ZM296.75,615.29c-3.33.46-17.82,12.63-17.53,16.19.96,11.6,23.75-8.3,22.67-12.62-.44-1.77-3.21-3.83-5.14-3.57Z"/>
        <path class="cls-4" d="M380.91,697.09c.94-2.04,5.15-10.44,6.73-10.89,1.7-.48,5.96,1.69,5.17,4.21-.91,2.9-13.89,23.54-16.36,26.69-2.71,3.46-6.68,1.25-6.47-2.36.33-5.64,12.73-11.96,1.98-16.08-4.4-1.69-8.28,8.81-9.97,12.5-.95.7-5.51-2.18-5.89-3.69-.42-1.66,15.94-28.68,17.56-29.21,2.26-.74,5.28.93,5.33,3.38.05,2.63-6.3,9.48-5.96,10.95,1.06,1.13,6.76,5.29,7.9,4.52Z"/>
        <path class="cls-4" d="M814.02,602.11c-.54-.78,2.55-6.03,4.31-5.87,3.31.31,16.98,13.15,22.17,14.95,3.44,1.2,6.89-.66,6.38-4.32s-19.45-15.39-23.87-17.75c-.47-.67,3-6.27,4.47-6.03,1.39.23,21.47,14.39,23.03,16.05,3.92,4.19,3.93,6.74,1.67,11.67-9.16,20.04-26.51-4.09-38.15-8.71Z"/>
        <path class="cls-4" d="M316.7,630.25c1.95-.51,5.51,2.59,5.22,4.26-.43,2.45-16.74,15.04-18.4,18.65-2.37,5.16,1.21,9.79,6.41,6.44,3.69-2.38,16.79-18.04,18.7-18.38,1.66-.29,4.77,3.27,4.26,5.22-.55,2.1-19.42,19.75-22.39,20.77-6.49,2.24-16.2-6.51-15.09-13.12.6-3.55,18.78-23.18,21.29-23.84Z"/>
        <path class="cls-4" d="M266.12,580.01c-.2-.13-1.86-4.15-1.85-4.38.08-1.3,3.75-2.69,3.75-4.98.01-3.27-4.9-5.33-6.77-.74-2.35,5.79.56,13.3-4.74,18.26-12.81,11.97-28.63-14.71-10.16-18.96,7.1,5.84-2.51,6.88-2.13,11.28.47,5.38,7.35,4.29,8.57-.05,1.89-6.75-1.5-20.89,11.68-20.37,14.18.56,9.66,25.03,1.65,19.94Z"/>
        <path class="cls-4" d="M636.9,732.04c-7.79,4.85-6.93-7.77-13.97-2.28-1.85,8.32,17.66,6.09,19,17.99,1.54,13.68-18.91,16.92-21.69,4.64-.76-3.38-.5-5.11,3.37-5.22,4.57-.13,2.52,3.15,4.32,5.55,2.3,3.06,8.19.92,6.66-4.66-1.33-4.85-17.12-4.19-18.54-14.5-1.87-13.54,21.61-16.04,20.86-1.52Z"/>
        <path class="cls-4" d="M530.98,742.15c-8.33.55-4.93-5.26-7.67-7.09-3.47-2.32-6.89.4-4.78,5.07,1.57,3.48,8.61,5.95,11.03,10.96,8.84,18.3-25.47,22.15-20.56,1.05,10.81-.87,5.33.89,7.17,6.34.91,2.71,6.5,3.52,6.92.19,1.19-9.54-13.07-10.88-12.72-20.87.5-14.45,26.3-10.66,20.63,4.35Z"/>
        <path class="cls-4" d="M613,763.14c-10.23,2.99-7.04-6.11-9.1-7.89-.73-.62-7.07-.64-7.76,1.53-1.89,5.97,3.22,8.46-8.13,9.36,1.52-5.33,2.18-34.51,4.18-36.81.73-.84,8.91-2.4,9.73.4l11.09,33.41ZM601,750.14l-.25-4.25-3.75-11.74-1.01,15.99h5.01Z"/>
        <path class="cls-4" d="M731.94,721.09c-7.65,5.51-7.82-3.65-11.46-4.01-.87-.08-6.27,1.84-6.47,2.12-.85,1.15,5.63,9.45-.98,11.52-1.07.34-2.05.79-3.1,0-1.43-1.06-9.45-33.08-8.51-34.59.6-.95,7.39-4.33,8.57-3.56l21.48,25.59.47,2.92ZM712.01,714.14l4.95-2.49-7.95-9.51,3,12Z"/>
        <path class="cls-4" d="M788.73,631.31c3.74-.77,7.91,1.51,10.21,4.45-2.95,7.82-6.33,2.09-9.42,2.3-10.56.72,12.41,25.56,17.04,19.15,2.55-3.74-3.21-6.03-3.5-7.7-.34-1.94,3.49-5.49,6.49-3.44,9.12,6.25,1.9,19.89-8.05,19.13-6.56-.5-21.6-16.02-21.6-22.56,0-4.25,4.7-10.48,8.83-11.33Z"/>
        <path class="cls-4" d="M503.99,727.15c.35.35-.21,4.74,0,5.99l-12.99-2c-1.88,12.08.25,7.43,8.53,9.98,1.24.38,1.67-.75,1.41,1.44-.18,1.52-1.09,2.99-.95,4.59l-10.96-1.98-2.04,9.39,12.01,2.59c-.15,1.04-.79,5.79-1.02,5.99-.68.62-17.24-3-18.02-3.48-.67-.41-1.02-.98-.78-1.78l6.3-32.77,1.09-.85c2.35,1.29,16.79,2.28,17.42,2.89Z"/>
        <path class="cls-4" d="M661.99,713.14c-.25,1.36,1.58,5.38,1.01,6-.38.42-10.4,2.2-11.01,3.02-.54.72,2.56,6.2,2.01,7.99,2.57.69,9.35-3.81,11.03-2.56,1.12.83,1.45,4.8.87,5.47-.28.33-7.07,1.67-8.45,2.07-1.15.34-1.8-.71-1.34,1.38.23,1.05,2.61,8.28,2.98,8.54,1.94,1.39,10.96-3.58,11.89-2.91.25.18,1.44,5.44.98,5.97-.61.7-15.62,4.07-17.96,5.04l-9.97-34.96,17.95-5.04Z"/>
        <path class="cls-4" d="M282.83,584.32c.64.38,7.9,11.46,8.27,12.28,1.51,3.33-1.56,5.49-4.11,4.1-1.88-1.02-4.94-8.45-6.49-8.46-.61,0-4.54,4.25-6.5,3.92-1.06,1.51,5.86,7.28,4.95,10.38-4.47,5.18-7.22-2.56-8.97-6.39l-8.93,5.07c.8,6.05,10.91,10.99.97,13.91-.41-4.33-11-13.16-8.84-16.83,8.39-3.47,18.14-14.39,25.87-17.62,1.15-.48,2.64-1.04,3.78-.37Z"/>
        <path class="cls-4" d="M417.99,701.16c-1.11,10.87-9.79-1.41-13.87,1.12-.54.33-2.46,6.07-2.21,7.23s13.07,3.99,7.13,8.2c-2.6,1.84-8.01-3.71-11.04-3.57l-4.01,9.99c1.48.54,9.63,3.66,9.94,4.09.41.57-.78,4.75-.99,4.89-1.93,1.33-13.7-6.76-16.88-7.05-1.02-1.42,13.45-30.54,14.92-31.48,2.88-1.84,13.13,6.39,17.01,6.58Z"/>
        <path class="cls-4" d="M743.08,706.09l11.87-5.92c-.15,1.46,1.79,2.8,1.92,3.66.25,1.57-13.74,10.96-16.23,10.23-1.69-.5-14.97-24.19-17.89-27.23-2.55-2.24,3.63-6.32,5.26-5.26l15.06,24.51Z"/>
        <path class="cls-4" d="M801.64,617.22l22.86,18.87,8.14-8.87c2,.14,3.76,2.3,3.24,4.21-.19.73-8.65,11.27-9.33,11.79-1.24.95-2.13,1.21-3.58.52l-24.5-20.63c-1.46-2.59,1.28-4.5,3.17-5.9Z"/>
        <path class="cls-4" d="M778.98,683.15c.15.1.98,3.13.96,3.53-.16,2.61-11.44,9.75-14.37,11.44-2-3.41-22.64-27.51-21.57-28.96.16-.22,4.36-2.89,4.63-2.94,3.03-.58,16.1,22.07,19.04,22.84s8.77-7.68,11.31-5.91Z"/>
        <path class="cls-4" d="M335.99,686.16c.79,1.14-2.82,4.79-3.48,4.8-1.63.01-11.78-10.24-14.54-11.34.05-1.9,21.3-27.49,23.34-27.32,1.02.08,3.29,1.46,3.6,2.5,1.08,3.64-15.35,19.71-17.87,23.93-.14,2.44,8.41,6.66,8.95,7.43Z"/>
        <path class="cls-4" d="M534,41.14l5.01,50.01-11,.99c-.89-8.88-.73-18.67-2.1-27.41-.16-1.04-.4-3.74-1.9-3.58l-2.45,31.06c-.86,1.24-8.44,1.42-9.42.8-1.19-.76-6.83-22.9-8.68-26.87-.31-.67-.92-3.85-2.46-1.99-.95,1.15,5.37,25.4,4.87,29.42-.41,1.76-10.45,2.49-10.91,2.15-2.03-1.46-4.86-43.74-5.98-49.58l16.91-.9c2.23,7.68,4.42,15.71,7.36,23.15.42,1.06.29,2.98,1.73,2.74l2.06-27.95,16.95-2.05Z"/>
        <path class="cls-4" d="M350.34,131.79c-.54-.49-2.41-4.83-3.33-1.65,1.76-.14,1.88.71,2.56,1.92,2.23,3.93,12.58,20.89,12.53,23.62-.03,1.61-7.42,6.12-9.46,7.41l-34.19-31.87c-5.25-2.96,6.01-9.4,7.53-8.63,2.77,1.4,11.31,12.38,14.49,15.62,1.03,1.05,2.63,1.46,3.28,2.23.7.83-.59,3.05,1.24,2.71.32-6.83-12.45-20.77-12.87-25.69-.12-1.41,8.11-7.4,9.24-7.2,2.39.41,14.62,17.94,19.35,19.17l2.28,3.72c-.27-2.35-1.71-4.6-2.82-6.66-2.03-3.77-11.68-17.62-12.05-20.05-.44-2.96,5.49-6.24,8.28-7.21,2.75,5.31,23.28,41.73,22.51,44.28-.19.64-9.66,7.75-10.31,7.62-5.89-6.59-11.79-13.46-18.26-19.32Z"/>
        <path class="cls-4" d="M716,107.15c6.44,8.3-4.4,16.32-4.01,24.99-4.58.2-7.39-4.49-11.98-5.05.3-5.71,7.69-12.82,5.84-18.29-.59-1.76-3.62-3.38-5.34-1.69-2.24,2.2-5.39,13.23-7.5,14.58-2.7,1.73-7.79-3.54-11.01-3.57l22.65-43.91c5.78,2.05,21.06,7.93,22.9,13.86,2.37,7.64-2.7,19.17-11.55,19.07ZM706.03,98.1c6.56,4.79,13.3-5.1,8.99-9.48-.79-.8-4.11-2.01-4.94-1.41-.47.34-4.59,10.13-4.05,10.89Z"/>
        <path class="cls-4" d="M607.95,45.19c1.35,1.4-2.87,15.25-2.02,18.35.24.87,6.23,2.04,6.98,1.53,1.41-2.57,2.01-16.82,3.19-17.81,1.57-1.32,9.4,1.42,11.9.89-1.91,5.5-6.25,48.48-8.67,49.05-2.98.7-7.1-1.58-10.32-1.07-1.52-1.46,2.68-16.93,2.05-20.42-.08-.43-5.77-1.73-6.44-1.63-1.56.21-3.28,17.22-3.63,20.06l-12-1,7-49.01,11.96,1.05Z"/>
        <path class="cls-4" d="M449.76,55.4c9.66-1.22,13.08,3.12,16.25,11.23,2.58,6.59,8.06,23.38,6.74,29.8-2.15,10.48-21.94,15.32-28.6,5.06-2.37-3.65-9.74-26.83-9.9-31.1-.34-8.66,7.7-14,15.51-14.98ZM448.71,65.29c-1.94.55-2.69,2.34-2.68,4.22.02,2.42,7.72,26.41,8.94,27.15,2.25,1.36,5.5.91,6.04-2.04.63-3.43-6.08-26.8-8.44-28.56-1.29-.96-2.29-1.23-3.86-.78Z"/>
        <path class="cls-4" d="M757.66,105.49c9.13-.29,19.79,9.3,18.11,18.92-.79,4.53-17.28,27.14-21.42,29.59-5.31,3.14-8.26,2.16-13.39-.31-11.27-5.44-12.69-13.45-6.78-23.86,2.73-4.8,14.51-21.12,18.92-23.07,1.31-.58,3.15-1.22,4.56-1.27ZM759.72,116.29c-2.72.75-18.04,22.38-17.75,25.31.26,2.64,2.56,3.97,5.06,3.16,2.03-.66,14.57-17.95,16.16-20.91,2.15-4.03,2.18-9.12-3.47-7.55Z"/>
        <path class="cls-4" d="M398.34,123.8c-2.21-2-14.04-24.4-14.87-27.62-1.89-7.29-.29-12.1,5.62-16.44,7.86-5.77,16.72-6.61,22.75,2.08,3.12,4.49,13.44,26.04,13.23,30.82-.45,10.5-18.19,18.86-26.72,11.17ZM400.7,86.44c-3.25-2.82-7.29-.38-6.29,4.74.59,3.04,11,23.65,13.03,25.03,4.44,3.02,6.02-1.93,5.13-6.12-.56-2.62-10.28-22.28-11.86-23.65Z"/>
        <path class="cls-4" d="M273.98,173.15c2.11,4.07,7.53,18.87,10.46,21.05,3.7,2.76,27.19,6.21,28.55,7.96-1.44,1.79-5.91,9.45-7.61,9.78-2.56.51-15.83-5.45-16.38-4.79-1.32,4.59,10.99,10.74,11.06,11.56.1,1.31-5.62,9.17-6.69,9.36l-39.34-29.53c7.83-15.58,10.33-3.75,20.94.12-1.23-3.98-8.54-12.92-8.82-16.2-.04-.52,5.04-7.92,5.76-8.67.79-.83.68-.92,2.07-.64Z"/>
        <path class="cls-4" d="M800.63,137.22c1.18-.21,16.19,14.55,17.42,16.38,2.2,3.27-3.4,8.58-5.56,8.58-5.46,0-8.36-16.38-16.48-3.54,1.39,2.07,10.24,8.99,9.91,10.86-.1.55-6.01,6.47-6.56,6.56-4.32.75-8.49-16.02-16.42-4.46-2.75,4.01,9.1,9.3,9.09,13.03,0,1.81-5.19,6.96-7.33,6.39-1.13-.3-16.02-15.1-16.77-16.36-.65-1.09-1.02-1.32-.8-2.81.7-4.78,29.02-28.89,33.51-34.66Z"/>
        <path class="cls-4" d="M833.24,191.39c-4.11,4.16,3.36,16.38-3.25,25.24-15.74,21.1-40.47-8.35-22.93-19.93,1.16-.77,2.39-1.96,3.94-1.14.68.36,5.03,6.27,5.04,7.07.01,2-9.27,8.03-2.37,10.37,10.35,3.51,6.25-12.22,6.24-16.36,0-10.95,11.5-21.76,22.04-14.96,8.52,5.5,11.88,18.17,2.57,24.51-3.03,2.06-7.54-4.68-7.55-6.58s2.45-2.7,2.88-4.19c1.25-4.25-3.77-6.93-6.62-4.04Z"/>
        <path class="cls-4" d="M676.93,72.07c-2.08,1.77-13.97-4.29-14.97-3.51-6.36,12.13,2.7,8.07,9.36,11.77,2.98,1.66-.54,9.27-1.96,9.74-2.62.86-10.38-3.15-13.34-3.92-.01,2.69-2.73,6.45-2.87,8.71-.17,2.81,11.18,5.18,13.84,5.32.49,3.49-1.08,6.67-2.08,9.89-1.1.78-24.72-6.78-25.49-7.87-2.04-2.9,13.63-40.47,13.59-47.04.97-.88,23.97,6.73,25.02,7.51,1.29.97-.72,9.1-1.1,9.41Z"/>
        <path class="cls-4" d="M298.5,146.16l34.06,33.99c1.16,2.07-5.69,8.02-7.06,8.03-2.72,0-29.28-29.39-34.06-33.04-1.29-2.51,5.6-6.8,7.06-8.97Z"/>
        <path class="cls-2" d="M588.07,534.05c7.1,3.88,20.64,9.69,26.19,15.05,4.47,4.31-2.81,10.39-7.54,9.86-4.27-3.5-30.7-14.31-32.25-16.8-.73-1.18-.48-2.11-.4-3.35.42-6.95,3.78-25.57,5.99-32.11,2.86-8.46,13.8-8.26,13.99-1.1.11,4.09-7.19,26.79-5.98,28.45Z"/>
        <path class="cls-2" d="M542.13,559.01c-.83-11.77.59-23.41,1.08-35.15,1.34-6.01,11.93-8.12,13.79-1.17.39,4.84-3.46,24.65-1.54,27.5,4.33,2.56,29.35,11.48,30.41,14.62,1.99,5.93-5.49,8.34-10.3,7.28l-33.43-13.08Z"/>
        <path class="cls-2" d="M525.17,567.97c5.17,2.43,31.55,8.4,33.38,12.19,2.45,5.05-5.79,8.4-9.96,6.91l-35.46-11.05c.58-7.76-6.37-29.39-1.73-34.96,3.48-4.17,10.6-3.36,11.53,2.65,1.17,7.62.39,16.54,2.23,24.26Z"/>
        <path class="cls-2" d="M499.22,585.91c4.53,2.22,33.11,6.94,34.61,9.38,2.38,3.88-3.04,8.38-7.06,7.6-6.67-2.96-32.57-5.66-36.75-9.27-1.81-1.56-9.27-26-9.1-28.99.22-3.98,4.65-6.03,8.1-5.09,6.14,1.69,7.13,20.8,10.21,26.36Z"/>
        <path class="cls-2" d="M478.24,603.89c2.25,2.13,25.98,3.88,31.57,5.93,8,2.95,3.05,8.39-3.26,8.35l-35.52-6.57c-1.67-1-12.64-22.51-13-25.04-1.07-7.61,7.6-7.73,10.84-2.79,2.53,3.86,6.69,17.59,9.37,20.12Z"/>
        <path class="cls-2" d="M442.71,601.34c8.72-2.67,14.25,15.64,20.27,20.32,5.28,1.65,32.45,1.61,33.9,6.14,1.13,3.51-2.07,5.3-5.26,5.27l-34.63-4.43c-2.32-4.16-17.68-21.56-16.9-24.8.25-1.04,1.58-2.18,2.61-2.5Z"/>
        <path class="cls-2" d="M484.9,646.05c-.37.55-4.27,1.17-5.36,1.13-10.02-.35-20.46-2.5-30.6-2.49-2.37-.73-18.53-17.15-19.42-19.6-1.65-4.56,1.42-6.31,5.46-4.44s14.02,16.21,17.72,17.28c5.53,1.61,16.66.68,22.78,1.22,3.12.28,12.72,2.01,9.42,6.89Z"/>
        <path class="cls-2" d="M476.99,659.13c-.9,1.34-13.9,1.13-16.54,1.05-3.35-.1-14.27-.66-16.72-1.29-2.02-.52-20.35-14.94-21.22-16.78-.63-1.32-.64-2.56-.52-3.97,4.29-4.34,19.3,13.51,23.72,14.78,6.56,1.89,26.26-2.47,30.37,2.63.71.88,1.44,2.79.91,3.57Z"/>
        <path class="cls-2" d="M811.99,481.15c1.65,9.08-11.3,13.74-14.23,20.26-2.31,5.14-3.35,24.63-7.76,27.24-.87.52-3.67.81-4,.49-1.14-1.11,5.63-27.34,6.22-31.27.6-1.24,14-15.05,15.23-15.77,1.59-.93,2.69-1.22,4.55-.95Z"/>
        <path class="cls-2" d="M563.7,291.86c-2.28,2.83-10.56,3.47-12.04.06-2.03-4.68,3.42-27.13,1.22-29.66l-27.83-11.66c-7.12-4.91-.23-10.84,6.19-10.27l34.3,13.78c1.62,2.42.31,35.09-1.84,37.75Z"/>
        <path class="cls-2" d="M550.26,233.88c-3.76-3.82,3.02-9.37,7.15-8.68l36.6,11.43c1.98,1.71,4.54,28.25,4.04,32.07-.91,6.91-10.37,7.32-12.53,2.43-1.91-4.33.21-23.31-3.52-26.48-5.91-2.88-28.02-6.99-31.74-10.76Z"/>
        <path class="cls-2" d="M618.77,219.38c1.27,8.17,8.38,20.39,8.32,28.28-.06,7.27-9.17,6.78-11.16,3.8-2.86-4.28-4.46-22.44-7.96-24.79-4.9-3.28-29.81-4.84-33.06-8.94s2.36-8.1,6.54-7.63l37.32,9.27Z"/>
        <path class="cls-2" d="M640.25,230.89c-2.91-2.8-7.21-19.96-11.26-22.23-9.26-2.21-19.92-2.64-29.02-4.98-9.65-2.49-6.22-9.02,2.5-8.53,3.99.22,33.24,5.54,35.09,6.94,2.4,1.82,12.58,22.41,12.5,25.59-.13,5.2-7.06,5.84-9.81,3.21Z"/>
        <path class="cls-2" d="M613.7,180.35c1.56-.47,3.18-.27,4.77-.21,4.41.17,29.71,3.24,32.51,4.53,1.39.64,14.71,18.74,15.86,21.15,3.05,6.38-3.31,8.13-7.82,4.81-3.76-2.77-9.6-16.98-14.05-18.95-6.3-2.79-29.07-1.73-32.97-5.02-2.26-1.91-.77-5.55,1.7-6.3Z"/>
        <path class="cls-2" d="M623.09,167.23c1.95-2.93,31,1.61,36.2,1.11,3.17,3.2,21.16,18.94,20.56,22.15-.17.92-1.65,2.24-2.58,2.5-7.03,1.94-15.1-15.8-20.99-17.64s-30.62-.51-32.8-4.2c-.54-.91-.91-3.15-.39-3.92Z"/>
        <path class="cls-2" d="M632.5,153.14h28c4.13,0,21.89,13.51,24.92,17.07,2.29,2.7,2.09,4.98-1.9,5-5.8.02-14.77-12.87-20.46-14.63-6.5-2.02-20.69.04-28.33-1.67-3.08-.69-5.48-3.24-2.22-5.78Z"/>
        <path class="cls-4" d="M567,326.14l-35.54,20.96-77.48,114.52c-10.62,8.39-23.09,14.92-34.98,21.52.8-22.66,1.89-45.35,3-68,.62-12.6,1.94-25.48,1.5-38l-63.97,94.03c-9.43,6.22-19.68,13.11-29.62,18.39-1.64.87-2.85,1.84-4.92,1.57l6-109,21-18.99-31,1.99c.29-.57.09-2.36.78-3.68,1.31-2.53,6.28-13.65,7.88-14.17l48.34-4.16-24.84,19.66c-1.35,29.52-3.41,58.92-4.15,88.34,9.94-12.53,18.9-26.6,27.99-40,16.37-24.13,32.44-48.49,49-72.5,15.01-1.12,30.02-3.24,45-4.5.16,2.1-3.02,3.76-4.55,4.95-3.88,3.04-18.16,12.41-19.46,15.54-.52,1.26-.83,3.58-.98,5.02-2.46,23.75-1.95,50.86-2.97,75.03-.12,2.82-1.84,6.02-.55,8.45,9.62-12.94,18.43-26.63,27.51-39.99,16.38-24.12,32.72-48.29,49.03-72.47,15.81-2.66,31.94-3.77,47.97-4.53Z"/>
        <path class="cls-4" d="M1066,280.14l-32.87,20.63-55.7,114.3-32.43,19.07c10.73-25.12,24.05-48.98,35-74l27.98-56.51c-2.38.76-4.8,3.66-6.49,5.5-26.37,28.63-51.8,58.22-77.9,87.1-5.66,13.29-10.61,27.06-14.59,40.91-.6.17-2.15.37-2-.61-1.86-16.14-5.12-32.06-7.87-48.05-.31-1.83.14-3.81-.13-5.34-1.87-10.86-4.13-23.28-6.5-34.01-.24-1.1-.01-3.24-1.49-2.98l-38.55,79.96-33.46,20.04,55-114,31-22.99-39,2.99c1.64-3.22,4.61-13.91,7.69-14.81,14.67-.52,29.23-3.04,43.81-4.18,3.08-.24,6.59.39,9.49,0l-21.07,15.69,11.08,66.31c8.67-6.64,14.74-16.04,21.99-24,19.55-21.48,39.54-42.83,59.05-64.45,22.44-3.16,45.29-4.85,67.95-6.55Z"/>
        <path class="cls-1" d="M241,339.14c-.37.3-.67.67-1,1-14.09,3.74-28.19,13.7-42,19l-18,1.99c-1.07-.99,7.91-16.83,9-18.99l52-3Z"/>
        <path class="cls-1" d="M283,318.14l-106.49,118.97,22.49,66.03,33.03-19.47,56.51-114.49c9.14-6.83,19.43-11.91,29.01-18.04,1.3-.83,2.92-.85,2.45-3l1.9,1.39-72.43,148.58-2.98,2.02-47.48,4.02,10.99,33.99c-8.63.98-17.35,1.3-26,2.01l-32.86-100.3c27.92-31.4,55.73-62.94,84.37-93.69,1.62-1.73,2.87-4.4,4.49-6.01.63-.17,1.11-.03,1-1l42-21Z"/>
        <path class="cls-1" d="M518,464.14c5.74-1.09,10.53-5.75,15.7-8.3l47.38-97.12,33.67-20.33c18.65-.62,37.19-4.05,55.77-5.23,1.63-.1,6.78-.86,7.48.98l-32.99,19.01c-13.17,1.71-26.86,1.64-39.75,4.26l-37.25,77.74c-6.92,1.59-23.4,16.18-31.51,18.99-1.46,1.68,2.14.95,3,1,18.15,1.08,40.99-4.78,59.55-5.46l32.49-19.51,47.05-95.95,15.42-11.08c6.37,7.08,5.01,16.27,2.19,24.69-8.66,25.83-28.84,54.06-39.02,79.98-14.24,22.05-36.43,36.81-62.68,40.32-15.35,2.05-42.11,5.27-56.98,5.09-7.03-.08-15.54-3.12-19.51-9.08Z"/>
        <path class="cls-4" d="M847,310.14l-15.03,8.74-47.7,97.31-33.02,19.7c-19.65,3.22-40.97,2.51-60.46,5.54-7.03,1.09-13.36,5.15-18.78,9.72-7.46-9.39-5.3-17.17-1.18-27.68,8.36-21.3,25.08-54.35,36.36-74.64,11.66-20.96,35.65-37.93,59.44-41.56,15.48-2.36,37.23-4.4,52.89-5.11,11.01-.5,20.18-1.33,27.49,7.99ZM798,339.14l32-19.5c-9.66-.43-19.74.65-29.49,1.51-8.07.71-26.99,1.51-33.55,3.45-1.93.57-32.05,18.96-33.5,20.5l-46.43,94.57c-.63,2.77,2.59.2,3.65-.36,10.39-5.47,19.71-13.06,30.33-18.17l38.85-3.16,38.15-78.84Z"/>
        <path class="cls-4" d="M240,340.14c-1.62,1.62-2.87,4.28-4.49,6.01-28.64,30.74-56.45,62.29-84.37,93.69l32.86,100.3c-3.59.29-23.65,2.98-24.9,1.9l-33.09-101.31,1.99-4.09,70-77.5c13.81-5.3,27.91-15.26,42-19Z"/>
        <path class="cls-4" d="M283,318.14l-42,21-52,3c1.75-3.5,6.48-16.87,9.69-17.81l76.82-7.18,7.49.99Z"/>
        <path class="cls-4" d="M240,340.14c.33-.33.63-.7,1-1,.11.97-.37.83-1,1Z"/>
        <path class="cls-1" d="M847,310.14c4.59,5.86,4.65,9.71,3.76,17.26-13.26,27.87-25.7,61.08-41.59,87.41-26.74,44.29-74.56,39.53-119.68,44.4-4.78-.11-13.22-2.87-16.81-6.03-.96-.84-.55-1.87-.68-2.04,5.42-4.57,11.75-8.63,18.78-9.72,19.5-3.03,40.82-2.31,60.46-5.54l33.02-19.7,47.7-97.31,15.03-8.74Z"/>
        <path class="cls-4" d="M694,323.14l-15.42,11.08-47.05,95.95-32.49,19.51c-18.55.68-41.39,6.55-59.55,5.46-.86-.05-4.45.68-3-1,8.11-2.81,24.59-17.4,31.51-18.99,7.49-1.72,21.06-.94,29.49-2.01,2.11-.27,9.03-.99,10.02-1.98,12.44-26.02,26.03-51.57,37.48-78.02l32.99-19.01c-.7-1.84-5.85-1.08-7.48-.98-18.57,1.18-37.11,4.61-55.77,5.23l-33.67,20.33-47.38,97.12c-5.17,2.55-9.96,7.21-15.7,8.3-5.2-7.8-3.44-17.41-.18-25.68,8.53-21.64,25.44-55.59,37.01-75.99,11.62-20.48,35.34-37.66,58.79-41.21,15.83-2.39,37.87-4.41,53.89-5.11,9.64-.42,19.53-.76,26.49,6.99Z"/>
        <path class="cls-1" d="M36,518.14l33.46-20.04,63.52-129.48-1.46-1.46-31.52,18.98-18,.99c-.91-.68,8.11-16.2,9-17.99l42.07-3.43,33.93-20.57-1.14,5.36-79.81,163.19-2.57,1.43c-14.74.47-29.34,2.82-44,4.01-1.2.1-3.43.53-3.49-1Z"/>
        <path class="cls-1" d="M1066,280.14c1.52.23-.21,3.18-.53,3.97-1.7,4.1-3.73,8.35-5.61,12.39-20.88,44.93-44.63,88.63-65.35,133.65-16.23,3.44-33.41,4.06-50.01,4.99-1.42-.54.47-.95.5-1l32.43-19.07,55.7-114.3,32.87-20.63Z"/>
        <path class="cls-1" d="M567,326.14c.1,0,1.11-2.16,2.01-.49l-2,4-100.93,149.07-2.6,1.4c-14.11.44-28.06,2.7-42.08,3.94-1.07.09-2.34.56-2.4-.92,11.89-6.6,24.36-13.14,34.98-21.52l77.48-114.52,35.54-20.96Z"/>
        <path class="cls-4" d="M320,348.14c.47,2.15-1.16,2.17-2.45,3-9.58,6.13-19.88,11.2-29.01,18.04l-56.51,114.49-33.03,19.47,72.95-149.55,2.57-1.43,45.48-4.02Z"/>
        <polygon class="cls-4" points="100 386.14 131.52 367.16 132.98 368.62 69.46 498.11 36 518.14 100 386.14"/>
        <path class="cls-1" d="M422,415.14l-49.45,72.05c-1.4,1.03-4.38,1.61-6.16,1.84-10.04,1.33-22.76,2.46-32.9,3.1-1.72.11-7.91.71-8.49-.99,2.07.27,3.28-.7,4.92-1.57,9.94-5.28,20.18-12.17,29.62-18.39l63.97-94.03c.43,12.52-.89,25.4-1.5,38Z"/>
        <path class="cls-1" d="M899,383.14c-2.43-.53-2.07,1.23-2.82,2.63-9.97,18.57-17.62,38.57-28.17,56.88-14.87,1.17-29.68,3.11-44.52,4.48-.65.06-7.47.57-4.49-.99l33.46-20.04,38.55-79.96c1.48-.26,1.25,1.88,1.49,2.98,2.36,10.73,4.62,23.16,6.5,34.01Z"/>
        <polygon class="cls-6" points="257.99 361.15 199.01 480.15 186.17 441.4 186.73 438.43 257.99 361.15"/>
        <path class="cls-1" d="M980,360.14c-23.39,22.39-43.03,48.71-65.49,72.01-1.22,1.26-4.14,4.61-5.51,4.99,3.98-13.85,8.93-27.62,14.59-40.91,26.1-28.89,51.53-58.47,77.9-87.1,1.69-1.84,4.11-4.74,6.49-5.5l-27.98,56.51Z"/>
        <path class="cls-1" d="M471,334.14c.66-.06,1.34.02,1.99,0-1.18,22.95-3.05,46.05-2.99,69-9.08,13.36-17.89,27.05-27.51,39.99-1.3-2.43.43-5.64.55-8.45,1.02-24.16.52-51.28,2.97-75.03.15-1.44.46-3.76.98-5.02,1.3-3.13,15.58-12.5,19.46-15.54,1.52-1.2,4.71-2.86,4.55-4.95Z"/>
        <path class="cls-1" d="M377,411.14c-9.09,13.4-18.05,27.47-27.99,40,.74-29.42,2.81-58.82,4.15-88.34l24.84-19.66-1,68Z"/>
        <path class="cls-1" d="M927,293.14c.11-.02.72-1.44,1.99-1l10.01,59c-7.25,7.96-13.32,17.36-21.99,24l-11.08-66.31,21.07-15.69Z"/>
        <path class="cls-4" d="M167,345.14l-33.93,20.57-42.07,3.43c1.14-2.31,7.59-17.8,8.67-18.04l67.33-5.96Z"/>
        <path class="cls-1" d="M866,312.14l39-2.99-31,22.99-18.99,1.99c2.83-6.57,5.59-13.34,8.8-19.74.64-1.27,2.06-1.99,2.19-2.26Z"/>
        <path class="cls-1" d="M321,365.14l31-1.99-21,18.99-19.99,1.99c-.67-.64,6.85-14.8,7.8-16.74.63-1.28,2.06-1.99,2.2-2.26Z"/>
        <path class="cls-6" d="M176,370.15c-4.32,5.42-9.2,11.54-13.97,16.52-1.58,1.64-3.58,4.4-6.02,4.47-.85-.97,7.97-19.03,9.42-20.07,2.63-1.9,7.37-.57,10.58-.91Z"/>
        <path class="cls-6" d="M258.5,359.14c.65.33.65.67,0,1v-1Z"/>
        <path class="cls-6" d="M155.5,392.14c.65.33.65.67,0,1v-1Z"/>
        <path class="cls-2" d="M426,722.13c.57-1.39,2.71-8.63,3.09-8.9,6.24-4.41,14.96,14.59-3.09,8.9Z"/>
        <path class="cls-2" d="M862.68,576.44c1.85,2.21,1.04,7.19-1.26,7.69-.45.1-8.09-3.69-8.36-4.07-2.2-3.09,4.73-9.49,9.62-3.63Z"/>
        <path class="cls-2" d="M848.69,569.45c1.69,1.98.93,6.1-1.29,6.63-1.02.24-7.22-3.75-7.39-4.47,1.35-4.49,5.55-5.83,8.69-2.16Z"/>
        <path class="cls-2" d="M570.85,751.28c1.08.67,1.7,7.5.7,8.92-.51.72-6.32,2.19-6.55,1.94l-1-10.99c1.75.33,5.66-.61,6.85.13Z"/>
        <path class="cls-2" d="M569.74,744.89c-5.83,5.07-6.62-4.51-5.74-8.75,5.83-2.12,9.51,5.47,5.74,8.75Z"/>
        <path class="cls-2" d="M686.12,735.01c-.37-.24-2.28-7.01-3.09-8.31,10.8-9.17,11.61,13.77,3.09,8.31Z"/>
        <path class="cls-2" d="M680.01,721.14c-.7-3.46-4.84-11.56,2.29-9.86,4.89,1.17,5.26,11.22-2.29,9.86Z"/>
        <path class="cls-2" d="M461.79,748.92c-1.22.69-5.49.51-6.36-.71-2.21-3.12,2.71-22.82,6.27-23.9,12.52-3.81,1.41,23.87.09,24.62Z"/>
        <path class="cls-2" d="M296.75,615.29c1.93-.26,4.7,1.8,5.14,3.57,1.08,4.33-21.71,24.23-22.67,12.62-.29-3.56,14.19-15.74,17.53-16.19Z"/>
        <polygon class="cls-2" points="601 750.14 595.99 750.14 597.01 734.15 600.75 745.89 601 750.14"/>
        <polygon class="cls-2" points="712.01 714.14 709.01 702.14 716.95 711.66 712.01 714.14"/>
        <path class="cls-2" d="M858.15,280.3c-.46.28-3.73,8.34-4.17,9.84-7.94-3.44-16.66-6.96-25.49-7.09-2.48-.04-7.97,1.82-9.35.94-.96-.61-8.21-17.4-9.97-20.52-67.3-119.13-207.94-176.84-340.17-136.83-83.84,25.37-154.27,89.81-186.17,171.33l-99.2,9.29c-1.92.64-6.72,15.6-9.14,17.86-.94.88-2.76,1.64-3.48,1.01-1.4-1.24,8.05-32.19,9.29-36.2C218.51,166.31,319.07,67.32,443.23,30.88c198.83-58.36,407.84,48.34,478.61,241,.6,1.9-.44,3.09-2.34,3.26l-61.34,5.16ZM534,41.14l-16.95,2.05-2.06,27.95c-1.44.24-1.31-1.68-1.73-2.74-2.94-7.44-5.13-15.47-7.36-23.15l-16.91.9c1.12,5.84,3.95,48.12,5.98,49.58.46.33,10.49-.39,10.91-2.15.49-4.02-5.82-28.27-4.87-29.42,1.54-1.86,2.14,1.32,2.46,1.99,1.85,3.97,7.49,26.11,8.68,26.87.98.63,8.56.44,9.42-.8l2.45-31.06c1.5-.15,1.74,2.55,1.9,3.58,1.37,8.74,1.2,18.53,2.1,27.41l11-.99-5.01-50.01ZM607.95,45.19l-11.96-1.05-7,49.01,12,1c.35-2.85,2.07-19.85,3.63-20.06.67-.09,6.36,1.2,6.44,1.63.64,3.49-3.56,18.96-2.05,20.42,3.22-.51,7.35,1.77,10.32,1.07,2.42-.57,6.76-43.55,8.67-49.05-2.5.53-10.33-2.21-11.9-.89-1.18.99-1.79,15.24-3.19,17.81-.75.51-6.74-.66-6.98-1.53-.85-3.1,3.37-16.95,2.02-18.35ZM449.76,55.4c-7.8.99-15.84,6.32-15.51,14.98.17,4.27,7.53,27.45,9.9,31.1,6.67,10.26,26.45,5.42,28.6-5.06,1.31-6.41-4.16-23.2-6.74-29.8-3.17-8.1-6.6-12.45-16.25-11.23ZM676.93,72.07c.37-.32,2.39-8.44,1.1-9.41-1.04-.78-24.05-8.39-25.02-7.51.04,6.56-15.63,44.14-13.59,47.04.77,1.1,24.39,8.66,25.49,7.87,1-3.22,2.57-6.39,2.08-9.89-2.66-.14-14.01-2.51-13.84-5.32.14-2.25,2.86-6.02,2.87-8.71,2.97.78,10.72,4.78,13.34,3.92,1.42-.47,4.94-8.08,1.96-9.74-6.66-3.7-15.72.36-9.36-11.77,1-.78,12.89,5.28,14.97,3.51ZM716,107.15c8.85.1,13.92-11.43,11.55-19.07-1.84-5.93-17.12-11.81-22.9-13.86l-22.65,43.91c3.22.03,8.31,5.3,11.01,3.57,2.11-1.35,5.26-12.38,7.5-14.58,1.72-1.69,4.75-.07,5.34,1.69,1.85,5.46-5.54,12.57-5.84,18.29,4.6.56,7.4,5.25,11.98,5.05-.39-8.67,10.45-16.69,4.01-24.99ZM398.34,123.8c8.53,7.7,26.27-.67,26.72-11.17.2-4.77-10.12-26.32-13.23-30.82-6.03-8.69-14.88-7.85-22.75-2.08-5.91,4.34-7.51,9.16-5.62,16.44.84,3.23,12.66,25.62,14.87,27.62ZM350.34,131.79c6.47,5.85,12.37,12.73,18.26,19.32.65.13,10.11-6.97,10.31-7.62.77-2.55-19.77-38.97-22.51-44.28-2.79.97-8.72,4.25-8.28,7.21.36,2.43,10.02,16.28,12.05,20.05,1.11,2.07,2.55,4.31,2.82,6.66l-2.28-3.72c-4.73-1.23-16.96-18.76-19.35-19.17-1.13-.2-9.36,5.79-9.24,7.2.42,4.91,13.19,18.86,12.87,25.69-1.82.34-.53-1.88-1.24-2.71-.65-.77-2.25-1.18-3.28-2.23-3.18-3.24-11.72-14.22-14.49-15.62-1.52-.77-12.78,5.66-7.53,8.63l34.19,31.87c2.04-1.29,9.43-5.8,9.46-7.41.05-2.72-10.29-19.68-12.53-23.62-.69-1.21-.8-2.06-2.56-1.92.93-3.18,2.8,1.17,3.33,1.65ZM757.66,105.49c-1.4.04-3.25.69-4.56,1.27-4.41,1.95-16.2,18.27-18.92,23.07-5.91,10.41-4.49,18.42,6.78,23.86,5.13,2.48,8.08,3.45,13.39.31,4.14-2.44,20.63-25.06,21.42-29.59,1.67-9.62-8.99-19.21-18.11-18.92ZM800.63,137.22c-4.49,5.77-32.81,29.88-33.51,34.66-.22,1.49.15,1.71.8,2.81.75,1.26,15.64,16.06,16.77,16.36,2.15.57,7.33-4.58,7.33-6.39,0-3.73-11.85-9.02-9.09-13.03,7.93-11.56,12.1,5.21,16.42,4.46.55-.1,6.47-6.01,6.56-6.56.33-1.87-8.52-8.79-9.91-10.86,8.12-12.85,11.03,3.54,16.48,3.54,2.16,0,7.76-5.31,5.56-8.58-1.23-1.83-16.24-16.59-17.42-16.38ZM298.5,146.16c-1.46,2.18-8.35,6.46-7.06,8.97,4.78,3.66,31.34,33.05,34.06,33.04,1.37,0,8.22-5.96,7.06-8.03l-34.06-33.99ZM273.98,173.15c-1.39-.29-1.27-.2-2.07.64-.72.75-5.81,8.16-5.76,8.67.28,3.27,7.6,12.22,8.82,16.2-10.6-3.86-13.11-15.7-20.94-.12l39.34,29.53c1.07-.19,6.79-8.06,6.69-9.36-.06-.82-12.38-6.97-11.06-11.56.55-.65,13.82,5.3,16.38,4.79,1.7-.34,6.17-7.99,7.61-9.78-1.37-1.75-24.86-5.2-28.55-7.96-2.93-2.18-8.35-16.99-10.46-21.05ZM833.24,191.39c2.85-2.89,7.87-.21,6.62,4.04-.44,1.49-2.88,2.3-2.88,4.19s4.52,8.64,7.55,6.58c9.31-6.35,5.95-19.01-2.57-24.51-10.54-6.81-22.05,4.01-22.04,14.96,0,4.14,4.1,19.87-6.24,16.36-6.91-2.34,2.38-8.37,2.37-10.37,0-.8-4.35-6.71-5.04-7.07-1.54-.82-2.78.37-3.94,1.14-17.55,11.58,7.19,41.03,22.93,19.93,6.61-8.86-.86-21.08,3.25-25.24Z"/>
        <path class="cls-2" d="M706.03,98.1c-.53-.76,3.58-10.55,4.05-10.89.83-.6,4.14.6,4.94,1.41,4.31,4.38-2.43,14.27-8.99,9.48Z"/>
        <path class="cls-2" d="M448.71,65.29c1.58-.45,2.57-.17,3.86.78,2.37,1.75,9.07,25.13,8.44,28.56-.54,2.95-3.8,3.4-6.04,2.04-1.23-.74-8.92-24.73-8.94-27.15-.01-1.88.74-3.67,2.68-4.22Z"/>
        <path class="cls-2" d="M759.72,116.29c5.65-1.57,5.62,3.52,3.47,7.55-1.58,2.97-14.12,20.25-16.16,20.91-2.5.82-4.8-.51-5.06-3.16-.29-2.94,15.02-24.56,17.75-25.31Z"/>
        <path class="cls-2" d="M400.7,86.44c1.58,1.37,11.31,21.03,11.86,23.65.89,4.19-.69,9.14-5.13,6.12-2.03-1.38-12.43-21.99-13.03-25.03-1-5.12,3.04-7.56,6.29-4.74Z"/>
        <path class="cls-3" d="M645,353.14c-11.46,26.45-25.04,52-37.48,78.02-.99.98-7.91,1.71-10.02,1.98-8.43,1.06-22.01.28-29.49,2.01l37.25-77.74c12.89-2.62,26.58-2.54,39.75-4.26ZM631,363.15c-4.7.88-17.68-.19-20.47,3.02l-28.53,58.96c4.35-.26,17.3.08,20.05-2.44l28.95-59.54Z"/>
        <path class="cls-1" d="M721,421.14c-10.62,5.1-19.95,12.7-30.33,18.17-1.06.56-4.27,3.13-3.65.36l46.43-94.57c1.45-1.54,31.58-19.93,33.5-20.5,6.57-1.93,25.48-2.74,33.55-3.45,9.75-.86,19.83-1.94,29.49-1.51l-32,19.5c-13.17,1.71-26.86,1.64-39.75,4.26-11.11,24.37-24.88,48.33-35.78,72.73-.74,1.65-1.69,3.08-1.47,5.02Z"/>
        <path class="cls-3" d="M798,339.14l-38.15,78.84-38.85,3.16c-.22-1.94.73-3.37,1.47-5.02,10.89-24.39,24.66-48.36,35.78-72.73,12.89-2.62,26.58-2.54,39.75-4.26ZM782.99,349.15c-4.38.81-16.38-.04-19.05,2.44l-28.94,59.55c.74.66,18.49-1.07,19.51-1.98l28.48-60.01Z"/>
        <path class="cls-6" d="M631,363.15l-28.95,59.54c-2.75,2.52-15.7,2.18-20.05,2.44l28.53-58.96c2.79-3.21,15.77-2.14,20.47-3.02Z"/>
        <path class="cls-6" d="M782.99,349.15l-28.48,60.01c-1.02.91-18.77,2.64-19.51,1.98l28.94-59.55c2.67-2.48,14.67-1.63,19.05-2.44Z"/>
      </g>
    </g>
  </g>
</svg>