<?xml version="1.0" encoding="UTF-8"?>
<svg id="Layer_2" data-name="Layer 2" xmlns="http://www.w3.org/2000/svg" viewBox="0 0 873.26 790.61">
  <defs>
    <style>
      .cls-1 {
        fill: #231f20;
      }

      .cls-2 {
        fill: #fff;
      }

      .cls-3 {
        fill: #e2e3e4;
      }

      .cls-4 {
        fill: #ec1c24;
      }

      .cls-5 {
        fill: #e0e0e0;
      }
    </style>
  </defs>
  <g id="Layer_1-2" data-name="Layer 1">
    <g>
      <path class="cls-5" d="M788.54,457.49l84.72-141.03h-139.42c11.78-40.81,28.36-79.26,50.67-112.72-123.77-3.93-255.64-33.65-347.88-126.33-92.24,92.67-224.12,122.4-347.89,126.33,22.31,33.45,38.9,71.9,50.67,112.72H0l84.72,141.03-56.95,111.2h130.61c-3.09,28.08-7.78,54.74-13.8,79.05,0,0,169.18,31.41,292.05,142.87,122.86-111.46,292.04-142.87,292.04-142.87-6.01-24.32-10.7-50.98-13.8-79.05h130.61l-56.94-111.2Z"/>
      <path d="M755.25,457.49l55.66-107.62h-134.09c7.51-41.47,19.34-80.05,36.46-111.21-86.57-.92-218.96-38.75-276.65-101.47-57.7,62.72-190.09,100.55-276.66,101.47,17.13,31.16,28.95,69.74,36.46,111.21H62.35l55.66,107.62-48.59,90.62h134.18c-2.7,29.09-6.95,55.97-12.35,78.81,0,0,121.41,27.42,245.39,136,123.96-108.57,245.38-136,245.38-136-5.41-22.84-9.65-49.72-12.36-78.81h134.18l-48.59-90.62Z"/>
      <path class="cls-5" d="M436.63,632.66c-47.05.03-87.6,27.74-106.29,67.72l106.29,71.25,106.28-71.25c-18.69-39.98-59.24-67.69-106.28-67.72Z"/>
      <g>
        <path class="cls-2" d="M255.91,519.17l-52.61-60.38,45.16-49.89h-32.71l-35.81,38.89v-73.3h-42.75c8.08,6.82,14.94,15.86,14.94,28.05v116.64h27.8v-46.68l41.29,46.68h34.67Z"/>
        <path class="cls-2" d="M616.2,408.9v110.27h-27.8v-82.23c0-12.18-6.87-21.22-14.95-28.04h42.75Z"/>
        <polygon class="cls-2" points="732.96 495.93 746.26 519.17 636.91 519.17 693.11 432.13 640.62 432.13 640.62 408.9 743.88 408.9 682.93 495.93 732.96 495.93"/>
        <path class="cls-2" d="M308.49,487.36v-55.22h19.53l13.32-23.24h-32.84v-34.42l-27.79,15.91v18.5h-20.48v23.24h20.48v56.74c0,16.73,13.56,30.29,30.29,30.29h22.05v-23.24h-15.97c-4.74,0-8.57-3.84-8.57-8.57"/>
        <path class="cls-2" d="M531.1,408.9l-27.59,58.09-32.06-60.98-32.07,60.99-27.57-58.1h-43.27c9.82,5.52,20.99,14.82,27.71,28.46,6.71,13.63,41.78,84.47,41.78,84.47l33.42-63.84,33.42,63.84,56.11-112.92h-29.87Z"/>
      </g>
      <g>
        <path class="cls-3" d="M630.68,286.11c-32.24-16.11-46.07-31.46-46.07-31.46C545.72,23.99,268.76-32.4,145.05,16c78.65,20.21,148.81,49.25,196.44,101.39-65.9-16.67-156.48-20.41-209.53-4.01,66.37,8.64,166.19,53.67,226.84,139.28,47.01,66.36,73.11,94.67,125.04,123.51,33.02-12.69,61.28-44.02,70.53-66.86,27.03,1.2,60.16-10.24,76.31-23.19Z"/>
        <path class="cls-4" d="M613.23,286.77c-127.94-25.88-136.07-160.48-346.11-160.48,117.63,64.62,118.93,176.47,218.38,233.53,0,0,11.27-11.83,22.09-37.73l18.56,4.4c3.42-22.95-.81-46.02-.81-46.02,12.85,5.17,51.21,18.12,87.89,6.3Z"/>
        <path class="cls-1" d="M377.89,127.36c79.91,24.9,141.26,66.83,178.27,103.4C526.07,80.32,338.99-13.31,179.76,15.2c0,0,124.05,17.68,198.13,112.15Z"/>
        <path class="cls-2" d="M462.76,283.57c-2.51-19.46-16.31-41.62-35.96-57.72,21.18,7.45,39.51,3.86,47.78-9.38,2.52,19.47,16.31,41.61,35.95,57.72-21.17-7.46-39.5-3.86-47.77,9.38Z"/>
      </g>
      <g>
        <path class="cls-3" d="M561.15,551.22c-5.9,0-10.71,2.25-13.81,6.16l-1.51-5.16h-14.75c3.08,2.6,5.68,6.04,5.68,10.68v31.28h10.58v-25.22c1.21-3.92,6.11-8.64,11.02-8.64,5.6,0,8.34,5.06,8.34,11.1v22.76h10.57v-23.96c0-13.29-8.44-19-16.13-19"/>
        <path class="cls-3" d="M378.22,574.87c0,6.94-2.94,11.4-9.12,11.4s-9.12-4.46-9.12-11.4v-22.72h-16.27c3.08,2.61,5.69,6.05,5.69,10.68v13.84h.06c0,14.59,12.49,18.52,19.64,18.52s19.65-3.93,19.65-18.52v-24.53h-10.53v22.72Z"/>
        <path class="cls-3" d="M458.48,552.23l-10.5,22.43-12.2-23.86-12.2,23.86-10.5-22.44h-16.46c3.74,2.11,7.98,5.64,10.54,10.84,2.55,5.18,15.9,32.79,15.9,32.79l12.71-25.27,12.72,25.27,21.36-43.62h-11.37Z"/>
        <path class="cls-3" d="M499.81,551.01c-12.96,0-23.23,9.19-23.23,22.19s10.27,22.2,23.23,22.2,23.23-9.2,23.23-22.2-10.27-22.19-23.23-22.19ZM499.81,586.88c-6.67,0-12.07-5.74-12.07-13.67s5.4-13.66,12.07-13.66,12.07,5.74,12.07,13.66-5.4,13.67-12.07,13.67Z"/>
        <path class="cls-3" d="M313.9,586.89c-6.52,0-12.22-4.57-12.58-7.78l-5.33,10.99c3.55,3.08,10.11,5.13,18.27,5.13,12.7,0,20.25-5.55,20.25-13.18-.12-6.25-3.78-10.14-14.24-12.92-7.37-1.91-11.62-2.66-11.62-5.35,0-2.98,3.68-4.55,8.4-4.55,3.97,0,7.74.95,11.14,3.21l4.13-7.39c-2.5-2.07-10.13-3.87-15.16-3.87-12.28,0-19.82,6.11-19.82,13.57-.11,4.94,3.43,9.15,14.71,12.01,7.14,1.82,11.11,2.69,11.11,5.55,0,3.11-3.82,4.57-9.27,4.57"/>
      </g>
      <g>
        <g>
          <path class="cls-4" d="M494.99,700.72c-1.89-1.69-2.69-6.07-1.66-9.52v-.04s0,0,0,0h0c-1.53,1.93-4.25,3.1-6.08,3.06-1.5-.04-11.16-.17-11.16-.17-1.61-.02-2.93,1.26-2.94,2.86-.03,1.6,1.25,2.92,2.85,2.95,0,0,8.55.15,9.9.15,1.61,0,3.72-.92,4.77-2.21l.59-1.49c-.4,1.04-.78,2.08-1.16,3.12-.57,2.71.09,4.22,2.17,5.98,2.2,1.92,5.55,4.81,5.55,4.81h0c1.11.96,2.8.84,3.76-.28.96-1.12.84-2.8-.27-3.77,0,0-5.29-4.56-6.32-5.49Z"/>
          <path class="cls-4" d="M501.76,684.95c-1.69-1.89-1.98-6.33-.58-9.65l.02-.03s0,0-.01,0h0c-1.74,1.75-4.57,2.6-6.38,2.35-1.48-.2-11.07-1.42-11.07-1.42-1.59-.21-3.05.92-3.25,2.51-.2,1.59.92,3.04,2.51,3.25,0,0,8.48,1.13,9.82,1.27,1.59.17,3.8-.5,4.98-1.65l.76-1.41c-.5.96-.98,1.93-1.47,2.89-.93,2.55-.42,4.26,1.44,6.27,1.97,2.16,4.96,5.4,4.96,5.4h0c1,1.08,2.68,1.15,3.77.15,1.08-1,1.15-2.68.16-3.77,0,0-4.75-5.14-5.66-6.17Z"/>
          <path class="cls-4" d="M481.14,742.7c-.8,2.32-2.98,4.33-4.71,4.9-1.42.46-10.58,3.56-10.58,3.56-1.52.52-2.33,2.16-1.83,3.68.52,1.52,2.16,2.34,3.68,1.82,0,0,8.11-2.7,9.38-3.15,1.51-.54,3.6-2.21,3.76-3.67l.31-7.13v-.03s0,0,0,0Z"/>
          <path class="cls-4" d="M515.18,676.81s-4.13-5.63-4.93-6.77c-1.46-2.07-1.25-6.52.52-9.65l.02-.03h0s0,.01,0,.01c-1.92,1.54-4.84,2.06-6.61,1.61-1.45-.38-10.83-2.67-10.83-2.67-1.56-.39-3.14.56-3.52,2.12s.57,3.13,2.13,3.52c0,0,8.3,2.07,9.61,2.37,1.57.36,3.83-.07,5.14-1.08l.91-1.31c-.6.89-1.17,1.78-1.75,2.67-1.16,2.31-.91,4.22.7,6.42,1.72,2.36,4.32,5.93,4.32,5.93.87,1.19,2.55,1.46,3.73.58,1.19-.87,1.46-2.54.58-3.73Z"/>
          <path class="cls-4" d="M494.41,737.95s-6.19-3.26-7.4-3.93c-2.23-1.23-3.98-5.32-3.76-8.9v-.04s0,0,0,0h0s0,.02,0,.02c-1.05,2.22-3.45,3.97-5.24,4.33-1.46.3-10.91,2.34-10.91,2.34-1.57.34-2.57,1.88-2.23,3.45.34,1.57,1.88,2.57,3.45,2.23h0s8.36-1.77,9.68-2.08c1.56-.37,3.42-1.73,4.14-3.21l.25-1.6c-.15,1.08-.28,2.16-.42,3.23.09,2.67,1.03,4.16,3.45,5.43,2.58,1.38,6.49,3.44,6.49,3.44,1.3.69,2.92.19,3.61-1.11.69-1.3.19-2.92-1.11-3.61Z"/>
          <path class="cls-4" d="M490.05,717.15c-2.07-1.47-3.34-5.72-2.72-9.27v-.04s0,0,0,0h0s0,.01,0,.01c-1.31,2.09-3.88,3.55-5.7,3.72-1.49.13-11.11,1.09-11.11,1.09-1.59.16-2.76,1.58-2.6,3.18.16,1.6,1.58,2.76,3.17,2.6h0s8.51-.81,9.85-.97c1.59-.19,3.59-1.33,4.48-2.72l.43-1.55c-.27,1.06-.53,2.13-.79,3.19-.3,2.54.56,4.21,2.82,5.74,2.41,1.65,6.06,4.15,6.06,4.15h0c1.21.83,2.88.52,3.71-.69.83-1.22.52-2.88-.7-3.71,0,0-5.78-3.94-6.9-4.74Z"/>
        </g>
        <g>
          <path class="cls-4" d="M378.26,700.72c1.89-1.69,2.68-6.07,1.66-9.52v-.04s0,0,0,0h0c1.54,1.93,4.25,3.1,6.08,3.06,1.5-.04,11.16-.17,11.16-.17,1.61-.02,2.93,1.26,2.95,2.86.03,1.6-1.25,2.92-2.86,2.95,0,0-8.55.15-9.9.15-1.61,0-3.72-.92-4.77-2.21l-.59-1.49c.4,1.04.77,2.08,1.16,3.12.57,2.71-.08,4.22-2.16,5.98-2.2,1.92-5.55,4.81-5.55,4.81h0c-1.11.96-2.8.84-3.76-.28-.96-1.12-.85-2.8.27-3.77,0,0,5.29-4.56,6.32-5.49Z"/>
          <path class="cls-4" d="M371.5,684.95c1.69-1.89,1.98-6.33.58-9.65l-.02-.03s0,0,.01,0h0c1.74,1.75,4.57,2.6,6.38,2.35,1.48-.2,11.07-1.42,11.07-1.42,1.59-.21,3.05.92,3.25,2.51.2,1.59-.92,3.04-2.51,3.25,0,0-8.48,1.13-9.82,1.27-1.59.17-3.8-.5-4.98-1.65l-.76-1.41c.5.96.98,1.93,1.47,2.89.93,2.55.41,4.26-1.44,6.27-1.97,2.16-4.96,5.4-4.96,5.4h0c-1,1.08-2.68,1.15-3.77.15-1.08-1-1.15-2.68-.15-3.77,0,0,4.75-5.14,5.66-6.17Z"/>
          <path class="cls-4" d="M392.11,742.7c.8,2.32,2.98,4.33,4.71,4.9,1.42.46,10.58,3.56,10.58,3.56,1.52.52,2.34,2.16,1.83,3.68-.52,1.52-2.16,2.34-3.68,1.82,0,0-8.11-2.7-9.38-3.15-1.51-.54-3.6-2.21-3.76-3.67l-.3-7.13v-.03s0,0,0,0Z"/>
          <path class="cls-4" d="M358.07,676.81s4.13-5.63,4.93-6.77c1.46-2.07,1.25-6.52-.53-9.65l-.02-.03h0s0,.01,0,.01c1.93,1.54,4.84,2.06,6.61,1.61,1.46-.38,10.84-2.67,10.84-2.67,1.55-.39,3.13.56,3.52,2.12.38,1.56-.57,3.13-2.13,3.52,0,0-8.3,2.07-9.61,2.37-1.57.36-3.83-.07-5.14-1.08l-.91-1.31c.59.89,1.17,1.78,1.75,2.67,1.16,2.31.91,4.22-.7,6.42-1.72,2.36-4.33,5.93-4.33,5.93-.87,1.19-2.54,1.46-3.73.58-1.19-.87-1.45-2.54-.58-3.73Z"/>
          <path class="cls-4" d="M378.85,737.95s6.19-3.26,7.4-3.93c2.23-1.23,3.98-5.32,3.76-8.9v-.04s0,0,0,0h0s0,.02,0,.02c1.06,2.22,3.45,3.97,5.24,4.33,1.47.3,10.91,2.34,10.91,2.34,1.57.34,2.57,1.88,2.23,3.45-.34,1.57-1.88,2.57-3.45,2.23h0s-8.37-1.77-9.68-2.08c-1.56-.37-3.42-1.73-4.14-3.21l-.25-1.6c.15,1.08.28,2.16.42,3.23-.09,2.67-1.03,4.16-3.44,5.43-2.58,1.38-6.49,3.44-6.49,3.44-1.3.69-2.92.19-3.61-1.11-.69-1.3-.19-2.92,1.11-3.61Z"/>
          <path class="cls-4" d="M383.2,717.15c2.07-1.47,3.35-5.72,2.72-9.27v-.04s0,0,0,0h0s0,.01,0,.01c1.31,2.09,3.88,3.55,5.7,3.72,1.49.13,11.11,1.09,11.11,1.09,1.59.16,2.76,1.58,2.6,3.18-.15,1.6-1.58,2.76-3.17,2.6h0s-8.51-.81-9.85-.97c-1.59-.19-3.59-1.33-4.48-2.72l-.43-1.55c.27,1.06.53,2.13.79,3.19.3,2.54-.56,4.21-2.82,5.74-2.41,1.65-6.06,4.15-6.06,4.15h0c-1.21.83-2.88.52-3.71-.69-.83-1.22-.52-2.88.69-3.71,0,0,5.78-3.94,6.9-4.74Z"/>
        </g>
      </g>
    </g>
  </g>
</svg>